G75*
G70*
%OFA0B0*%
%FSLAX24Y24*%
%IPPOS*%
%LPD*%
%AMOC8*
5,1,8,0,0,1.08239X$1,22.5*
%
%ADD10C,0.0080*%
D10*
X042351Y093101D02*
X042101Y093351D01*
X042101Y093851D01*
X042351Y094101D01*
X042851Y094101D01*
X043101Y093851D01*
X043351Y094101D01*
X043851Y094101D01*
X044101Y093851D01*
X044351Y094101D01*
X044851Y094101D01*
X045101Y093851D01*
X045351Y094101D01*
X045851Y094101D01*
X046101Y093851D01*
X046351Y094101D01*
X046851Y094101D01*
X047101Y093851D01*
X047351Y094101D01*
X047851Y094101D01*
X048101Y093851D01*
X048351Y094101D01*
X048851Y094101D01*
X049101Y093851D01*
X049351Y094101D01*
X049851Y094101D01*
X050101Y093851D01*
X050351Y094101D01*
X050851Y094101D01*
X051101Y093851D01*
X051351Y094101D01*
X051851Y094101D01*
X052101Y093851D01*
X052101Y093351D01*
X051851Y093101D01*
X051351Y093101D01*
X051101Y093351D01*
X050851Y093101D01*
X050351Y093101D01*
X050101Y093351D01*
X049851Y093101D01*
X049351Y093101D01*
X049101Y093351D01*
X048851Y093101D01*
X048351Y093101D01*
X048101Y093351D01*
X047851Y093101D01*
X047351Y093101D01*
X047101Y093351D01*
X046851Y093101D01*
X046351Y093101D01*
X046101Y093351D01*
X045851Y093101D01*
X045351Y093101D01*
X045101Y093351D01*
X044851Y093101D01*
X044351Y093101D01*
X044101Y093351D01*
X043851Y093101D01*
X043351Y093101D01*
X043101Y093351D01*
X042851Y093101D01*
X042351Y093101D01*
M02*
