G75*
G70*
%OFA0B0*%
%FSLAX24Y24*%
%IPPOS*%
%LPD*%
%AMOC8*
5,1,8,0,0,1.08239X$1,22.5*
%
%ADD10C,0.0050*%
%ADD11C,0.0080*%
D10*
X004091Y006726D02*
X004091Y006906D01*
X004226Y006861D02*
X003956Y006861D01*
X004091Y006726D01*
X004181Y007020D02*
X004226Y007020D01*
X004181Y007020D02*
X004001Y007201D01*
X003956Y007201D01*
X003956Y007020D01*
X004001Y007315D02*
X003956Y007360D01*
X003956Y007450D01*
X004001Y007495D01*
X004181Y007315D01*
X004226Y007360D01*
X004226Y007450D01*
X004181Y007495D01*
X004001Y007495D01*
X004001Y007315D02*
X004181Y007315D01*
X011956Y007360D02*
X011956Y007450D01*
X012001Y007495D01*
X012181Y007315D01*
X012226Y007360D01*
X012226Y007450D01*
X012181Y007495D01*
X012001Y007495D01*
X011956Y007360D02*
X012001Y007315D01*
X012181Y007315D01*
X012001Y007201D02*
X012181Y007020D01*
X012226Y007020D01*
X012226Y006861D02*
X011956Y006861D01*
X012091Y006726D01*
X012091Y006906D01*
X011956Y007020D02*
X011956Y007201D01*
X012001Y007201D01*
X012091Y016726D02*
X012091Y016906D01*
X012226Y016861D02*
X011956Y016861D01*
X012091Y016726D01*
X012181Y017020D02*
X012226Y017020D01*
X012181Y017020D02*
X012001Y017201D01*
X011956Y017201D01*
X011956Y017020D01*
X012001Y017315D02*
X011956Y017360D01*
X011956Y017450D01*
X012001Y017495D01*
X012181Y017315D01*
X012226Y017360D01*
X012226Y017450D01*
X012181Y017495D01*
X012001Y017495D01*
X012001Y017315D02*
X012181Y017315D01*
X004226Y017360D02*
X004181Y017315D01*
X004001Y017495D01*
X004181Y017495D01*
X004226Y017450D01*
X004226Y017360D01*
X004181Y017315D02*
X004001Y017315D01*
X003956Y017360D01*
X003956Y017450D01*
X004001Y017495D01*
X004001Y017201D02*
X004181Y017020D01*
X004226Y017020D01*
X004226Y016861D02*
X003956Y016861D01*
X004091Y016726D01*
X004091Y016906D01*
X003956Y017020D02*
X003956Y017201D01*
X004001Y017201D01*
X004091Y026726D02*
X004091Y026906D01*
X004226Y026861D02*
X003956Y026861D01*
X004091Y026726D01*
X004181Y027020D02*
X004226Y027020D01*
X004181Y027020D02*
X004001Y027201D01*
X003956Y027201D01*
X003956Y027020D01*
X004001Y027315D02*
X003956Y027360D01*
X003956Y027450D01*
X004001Y027495D01*
X004181Y027315D01*
X004226Y027360D01*
X004226Y027450D01*
X004181Y027495D01*
X004001Y027495D01*
X004001Y027315D02*
X004181Y027315D01*
X011956Y027360D02*
X011956Y027450D01*
X012001Y027495D01*
X012181Y027315D01*
X012226Y027360D01*
X012226Y027450D01*
X012181Y027495D01*
X012001Y027495D01*
X011956Y027360D02*
X012001Y027315D01*
X012181Y027315D01*
X012001Y027201D02*
X012181Y027020D01*
X012226Y027020D01*
X012226Y026861D02*
X011956Y026861D01*
X012091Y026726D01*
X012091Y026906D01*
X011956Y027020D02*
X011956Y027201D01*
X012001Y027201D01*
X012091Y036726D02*
X012091Y036906D01*
X012226Y036861D02*
X011956Y036861D01*
X012091Y036726D01*
X012181Y037020D02*
X012226Y037020D01*
X012181Y037020D02*
X012001Y037201D01*
X011956Y037201D01*
X011956Y037020D01*
X012001Y037315D02*
X011956Y037360D01*
X011956Y037450D01*
X012001Y037495D01*
X012181Y037315D01*
X012226Y037360D01*
X012226Y037450D01*
X012181Y037495D01*
X012001Y037495D01*
X012001Y037315D02*
X012181Y037315D01*
X004226Y037360D02*
X004181Y037315D01*
X004001Y037495D01*
X004181Y037495D01*
X004226Y037450D01*
X004226Y037360D01*
X004181Y037315D02*
X004001Y037315D01*
X003956Y037360D01*
X003956Y037450D01*
X004001Y037495D01*
X004001Y037201D02*
X004181Y037020D01*
X004226Y037020D01*
X004226Y036861D02*
X003956Y036861D01*
X004091Y036726D01*
X004091Y036906D01*
X003956Y037020D02*
X003956Y037201D01*
X004001Y037201D01*
X005591Y045226D02*
X005591Y045406D01*
X005726Y045361D02*
X005456Y045361D01*
X005591Y045226D01*
X005681Y045520D02*
X005726Y045520D01*
X005681Y045520D02*
X005501Y045701D01*
X005456Y045701D01*
X005456Y045520D01*
X005501Y045815D02*
X005456Y045860D01*
X005456Y045950D01*
X005501Y045995D01*
X005681Y045815D01*
X005726Y045860D01*
X005726Y045950D01*
X005681Y045995D01*
X005501Y045995D01*
X005501Y045815D02*
X005681Y045815D01*
X004091Y052726D02*
X004091Y052906D01*
X004226Y052861D02*
X003956Y052861D01*
X004091Y052726D01*
X004181Y053020D02*
X004226Y053020D01*
X004181Y053020D02*
X004001Y053201D01*
X003956Y053201D01*
X003956Y053020D01*
X004001Y053315D02*
X003956Y053360D01*
X003956Y053450D01*
X004001Y053495D01*
X004181Y053315D01*
X004226Y053360D01*
X004226Y053450D01*
X004181Y053495D01*
X004001Y053495D01*
X004001Y053315D02*
X004181Y053315D01*
X011956Y053360D02*
X011956Y053450D01*
X012001Y053495D01*
X012181Y053315D01*
X012226Y053360D01*
X012226Y053450D01*
X012181Y053495D01*
X012001Y053495D01*
X011956Y053360D02*
X012001Y053315D01*
X012181Y053315D01*
X012001Y053201D02*
X012181Y053020D01*
X012226Y053020D01*
X012226Y052861D02*
X011956Y052861D01*
X012091Y052726D01*
X012091Y052906D01*
X011956Y053020D02*
X011956Y053201D01*
X012001Y053201D01*
X013501Y045995D02*
X013681Y045815D01*
X013726Y045860D01*
X013726Y045950D01*
X013681Y045995D01*
X013501Y045995D01*
X013456Y045950D01*
X013456Y045860D01*
X013501Y045815D01*
X013681Y045815D01*
X013501Y045701D02*
X013681Y045520D01*
X013726Y045520D01*
X013726Y045361D02*
X013456Y045361D01*
X013591Y045226D01*
X013591Y045406D01*
X013456Y045520D02*
X013456Y045701D01*
X013501Y045701D01*
X021956Y052861D02*
X022091Y052726D01*
X022091Y052906D01*
X022226Y052861D02*
X021956Y052861D01*
X021956Y053020D02*
X021956Y053201D01*
X022001Y053201D01*
X022181Y053020D01*
X022226Y053020D01*
X022181Y053315D02*
X022001Y053495D01*
X022181Y053495D01*
X022226Y053450D01*
X022226Y053360D01*
X022181Y053315D01*
X022001Y053315D01*
X021956Y053360D01*
X021956Y053450D01*
X022001Y053495D01*
X023501Y045995D02*
X023681Y045815D01*
X023726Y045860D01*
X023726Y045950D01*
X023681Y045995D01*
X023501Y045995D01*
X023456Y045950D01*
X023456Y045860D01*
X023501Y045815D01*
X023681Y045815D01*
X023501Y045701D02*
X023681Y045520D01*
X023726Y045520D01*
X023726Y045361D02*
X023456Y045361D01*
X023591Y045226D01*
X023591Y045406D01*
X023456Y045520D02*
X023456Y045701D01*
X023501Y045701D01*
X022181Y037495D02*
X022226Y037450D01*
X022226Y037360D01*
X022181Y037315D01*
X022001Y037495D01*
X022181Y037495D01*
X022181Y037315D02*
X022001Y037315D01*
X021956Y037360D01*
X021956Y037450D01*
X022001Y037495D01*
X022001Y037201D02*
X022181Y037020D01*
X022226Y037020D01*
X022226Y036861D02*
X021956Y036861D01*
X022091Y036726D01*
X022091Y036906D01*
X021956Y037020D02*
X021956Y037201D01*
X022001Y037201D01*
X031956Y037201D02*
X031956Y037020D01*
X031956Y036861D02*
X032091Y036726D01*
X032091Y036906D01*
X032226Y036861D02*
X031956Y036861D01*
X032181Y037020D02*
X032226Y037020D01*
X032181Y037020D02*
X032001Y037201D01*
X031956Y037201D01*
X032001Y037315D02*
X031956Y037360D01*
X031956Y037450D01*
X032001Y037495D01*
X032181Y037315D01*
X032226Y037360D01*
X032226Y037450D01*
X032181Y037495D01*
X032001Y037495D01*
X032001Y037315D02*
X032181Y037315D01*
X033591Y045226D02*
X033591Y045406D01*
X033726Y045361D02*
X033456Y045361D01*
X033591Y045226D01*
X033681Y045520D02*
X033726Y045520D01*
X033681Y045520D02*
X033501Y045701D01*
X033456Y045701D01*
X033456Y045520D01*
X033501Y045815D02*
X033456Y045860D01*
X033456Y045950D01*
X033501Y045995D01*
X033681Y045815D01*
X033726Y045860D01*
X033726Y045950D01*
X033681Y045995D01*
X033501Y045995D01*
X033501Y045815D02*
X033681Y045815D01*
X032091Y052726D02*
X032091Y052906D01*
X032226Y052861D02*
X031956Y052861D01*
X032091Y052726D01*
X032181Y053020D02*
X032226Y053020D01*
X032181Y053020D02*
X032001Y053201D01*
X031956Y053201D01*
X031956Y053020D01*
X032001Y053315D02*
X031956Y053360D01*
X031956Y053450D01*
X032001Y053495D01*
X032181Y053315D01*
X032226Y053360D01*
X032226Y053450D01*
X032181Y053495D01*
X032001Y053495D01*
X032001Y053315D02*
X032181Y053315D01*
X032091Y062726D02*
X032091Y062906D01*
X032226Y062861D02*
X031956Y062861D01*
X032091Y062726D01*
X032181Y063020D02*
X032226Y063020D01*
X032181Y063020D02*
X032001Y063201D01*
X031956Y063201D01*
X031956Y063020D01*
X032001Y063315D02*
X031956Y063360D01*
X031956Y063450D01*
X032001Y063495D01*
X032181Y063315D01*
X032226Y063360D01*
X032226Y063450D01*
X032181Y063495D01*
X032001Y063495D01*
X032001Y063315D02*
X032181Y063315D01*
X041456Y063360D02*
X041456Y063450D01*
X041501Y063495D01*
X041681Y063315D01*
X041726Y063360D01*
X041726Y063450D01*
X041681Y063495D01*
X041501Y063495D01*
X041456Y063360D02*
X041501Y063315D01*
X041681Y063315D01*
X041501Y063201D02*
X041681Y063020D01*
X041726Y063020D01*
X041726Y062861D02*
X041456Y062861D01*
X041591Y062726D01*
X041591Y062906D01*
X041456Y063020D02*
X041456Y063201D01*
X041501Y063201D01*
X041591Y072726D02*
X041591Y072906D01*
X041726Y072861D02*
X041456Y072861D01*
X041591Y072726D01*
X041681Y073020D02*
X041501Y073201D01*
X041456Y073201D01*
X041456Y073020D01*
X041681Y073020D02*
X041726Y073020D01*
X041681Y073315D02*
X041501Y073495D01*
X041681Y073495D01*
X041726Y073450D01*
X041726Y073360D01*
X041681Y073315D01*
X041501Y073315D01*
X041456Y073360D01*
X041456Y073450D01*
X041501Y073495D01*
X043861Y080976D02*
X043861Y081246D01*
X043726Y081111D01*
X043906Y081111D01*
X044020Y081021D02*
X044020Y080976D01*
X044020Y081021D02*
X044201Y081201D01*
X044201Y081246D01*
X044020Y081246D01*
X044315Y081201D02*
X044360Y081246D01*
X044450Y081246D01*
X044495Y081201D01*
X044315Y081021D01*
X044360Y080976D01*
X044450Y080976D01*
X044495Y081021D01*
X044495Y081201D01*
X044315Y081201D02*
X044315Y081021D01*
X044360Y081976D02*
X044315Y082021D01*
X044495Y082201D01*
X044495Y082021D01*
X044450Y081976D01*
X044360Y081976D01*
X044315Y082021D02*
X044315Y082201D01*
X044360Y082246D01*
X044450Y082246D01*
X044495Y082201D01*
X044201Y082201D02*
X044020Y082021D01*
X044020Y081976D01*
X043861Y081976D02*
X043861Y082246D01*
X043726Y082111D01*
X043906Y082111D01*
X044020Y082246D02*
X044201Y082246D01*
X044201Y082201D01*
X052001Y073495D02*
X052181Y073315D01*
X052226Y073360D01*
X052226Y073450D01*
X052181Y073495D01*
X052001Y073495D01*
X051956Y073450D01*
X051956Y073360D01*
X052001Y073315D01*
X052181Y073315D01*
X052001Y073201D02*
X052181Y073020D01*
X052226Y073020D01*
X052226Y072861D02*
X051956Y072861D01*
X052091Y072726D01*
X052091Y072906D01*
X051956Y073020D02*
X051956Y073201D01*
X052001Y073201D01*
X054361Y080976D02*
X054361Y081246D01*
X054226Y081111D01*
X054406Y081111D01*
X054520Y081021D02*
X054520Y080976D01*
X054520Y081021D02*
X054701Y081201D01*
X054701Y081246D01*
X054520Y081246D01*
X054815Y081201D02*
X054860Y081246D01*
X054950Y081246D01*
X054995Y081201D01*
X054815Y081021D01*
X054860Y080976D01*
X054950Y080976D01*
X054995Y081021D01*
X054995Y081201D01*
X054815Y081201D02*
X054815Y081021D01*
X054860Y081976D02*
X054815Y082021D01*
X054995Y082201D01*
X054995Y082021D01*
X054950Y081976D01*
X054860Y081976D01*
X054815Y082021D02*
X054815Y082201D01*
X054860Y082246D01*
X054950Y082246D01*
X054995Y082201D01*
X054701Y082201D02*
X054520Y082021D01*
X054520Y081976D01*
X054361Y081976D02*
X054361Y082246D01*
X054226Y082111D01*
X054406Y082111D01*
X054520Y082246D02*
X054701Y082246D01*
X054701Y082201D01*
X062001Y073495D02*
X062181Y073315D01*
X062226Y073360D01*
X062226Y073450D01*
X062181Y073495D01*
X062001Y073495D01*
X061956Y073450D01*
X061956Y073360D01*
X062001Y073315D01*
X062181Y073315D01*
X062001Y073201D02*
X062181Y073020D01*
X062226Y073020D01*
X062226Y072861D02*
X061956Y072861D01*
X062091Y072726D01*
X062091Y072906D01*
X061956Y073020D02*
X061956Y073201D01*
X062001Y073201D01*
X064361Y080976D02*
X064361Y081246D01*
X064226Y081111D01*
X064406Y081111D01*
X064520Y081021D02*
X064520Y080976D01*
X064520Y081021D02*
X064701Y081201D01*
X064701Y081246D01*
X064520Y081246D01*
X064815Y081201D02*
X064860Y081246D01*
X064950Y081246D01*
X064995Y081201D01*
X064815Y081021D01*
X064860Y080976D01*
X064950Y080976D01*
X064995Y081021D01*
X064995Y081201D01*
X064815Y081201D02*
X064815Y081021D01*
X064860Y081976D02*
X064815Y082021D01*
X064995Y082201D01*
X064995Y082021D01*
X064950Y081976D01*
X064860Y081976D01*
X064815Y082021D02*
X064815Y082201D01*
X064860Y082246D01*
X064950Y082246D01*
X064995Y082201D01*
X064701Y082201D02*
X064520Y082021D01*
X064520Y081976D01*
X064361Y081976D02*
X064361Y082246D01*
X064226Y082111D01*
X064406Y082111D01*
X064520Y082246D02*
X064701Y082246D01*
X064701Y082201D01*
X072001Y073495D02*
X071956Y073450D01*
X071956Y073360D01*
X072001Y073315D01*
X072181Y073315D01*
X072001Y073495D01*
X072181Y073495D01*
X072226Y073450D01*
X072226Y073360D01*
X072181Y073315D01*
X072001Y073201D02*
X071956Y073201D01*
X071956Y073020D01*
X071956Y072861D02*
X072091Y072726D01*
X072091Y072906D01*
X072226Y072861D02*
X071956Y072861D01*
X072181Y073020D02*
X072226Y073020D01*
X072181Y073020D02*
X072001Y073201D01*
X074361Y080976D02*
X074361Y081246D01*
X074226Y081111D01*
X074406Y081111D01*
X074520Y081021D02*
X074520Y080976D01*
X074520Y081021D02*
X074701Y081201D01*
X074701Y081246D01*
X074520Y081246D01*
X074815Y081201D02*
X074860Y081246D01*
X074950Y081246D01*
X074995Y081201D01*
X074815Y081021D01*
X074860Y080976D01*
X074950Y080976D01*
X074995Y081021D01*
X074995Y081201D01*
X074815Y081201D02*
X074815Y081021D01*
X074860Y081976D02*
X074815Y082021D01*
X074995Y082201D01*
X074995Y082021D01*
X074950Y081976D01*
X074860Y081976D01*
X074815Y082021D02*
X074815Y082201D01*
X074860Y082246D01*
X074950Y082246D01*
X074995Y082201D01*
X074701Y082201D02*
X074520Y082021D01*
X074520Y081976D01*
X074361Y081976D02*
X074361Y082246D01*
X074226Y082111D01*
X074406Y082111D01*
X074520Y082246D02*
X074701Y082246D01*
X074701Y082201D01*
X082001Y073495D02*
X082181Y073315D01*
X082226Y073360D01*
X082226Y073450D01*
X082181Y073495D01*
X082001Y073495D01*
X081956Y073450D01*
X081956Y073360D01*
X082001Y073315D01*
X082181Y073315D01*
X082001Y073201D02*
X082181Y073020D01*
X082226Y073020D01*
X082226Y072861D02*
X081956Y072861D01*
X082091Y072726D01*
X082091Y072906D01*
X081956Y073020D02*
X081956Y073201D01*
X082001Y073201D01*
X088956Y072950D02*
X089001Y072995D01*
X089181Y072815D01*
X089226Y072860D01*
X089226Y072950D01*
X089181Y072995D01*
X089001Y072995D01*
X088956Y072950D02*
X088956Y072860D01*
X089001Y072815D01*
X089181Y072815D01*
X089001Y072701D02*
X089181Y072520D01*
X089226Y072520D01*
X089226Y072361D02*
X088956Y072361D01*
X089091Y072226D01*
X089091Y072406D01*
X088956Y072520D02*
X088956Y072701D01*
X089001Y072701D01*
X084950Y080976D02*
X084860Y080976D01*
X084815Y081021D01*
X084995Y081201D01*
X084995Y081021D01*
X084950Y080976D01*
X084815Y081021D02*
X084815Y081201D01*
X084860Y081246D01*
X084950Y081246D01*
X084995Y081201D01*
X084701Y081201D02*
X084520Y081021D01*
X084520Y080976D01*
X084361Y080976D02*
X084361Y081246D01*
X084226Y081111D01*
X084406Y081111D01*
X084520Y081246D02*
X084701Y081246D01*
X084701Y081201D01*
X084860Y081976D02*
X084815Y082021D01*
X084995Y082201D01*
X084995Y082021D01*
X084950Y081976D01*
X084860Y081976D01*
X084815Y082021D02*
X084815Y082201D01*
X084860Y082246D01*
X084950Y082246D01*
X084995Y082201D01*
X084701Y082201D02*
X084520Y082021D01*
X084520Y081976D01*
X084361Y081976D02*
X084361Y082246D01*
X084226Y082111D01*
X084406Y082111D01*
X084520Y082246D02*
X084701Y082246D01*
X084701Y082201D01*
X089956Y082861D02*
X090091Y082726D01*
X090091Y082906D01*
X090226Y082861D02*
X089956Y082861D01*
X089956Y083020D02*
X089956Y083201D01*
X090001Y083201D01*
X090181Y083020D01*
X090226Y083020D01*
X090181Y083315D02*
X090001Y083495D01*
X090181Y083495D01*
X090226Y083450D01*
X090226Y083360D01*
X090181Y083315D01*
X090001Y083315D01*
X089956Y083360D01*
X089956Y083450D01*
X090001Y083495D01*
X088611Y088142D02*
X088611Y088322D01*
X088746Y088277D02*
X088476Y088277D01*
X088611Y088142D01*
X088701Y088436D02*
X088746Y088436D01*
X088701Y088436D02*
X088521Y088617D01*
X088476Y088617D01*
X088476Y088436D01*
X088521Y088731D02*
X088476Y088776D01*
X088476Y088866D01*
X088521Y088911D01*
X088701Y088731D01*
X088746Y088776D01*
X088746Y088866D01*
X088701Y088911D01*
X088521Y088911D01*
X088521Y088731D02*
X088701Y088731D01*
X090001Y063495D02*
X090181Y063315D01*
X090226Y063360D01*
X090226Y063450D01*
X090181Y063495D01*
X090001Y063495D01*
X089956Y063450D01*
X089956Y063360D01*
X090001Y063315D01*
X090181Y063315D01*
X090001Y063201D02*
X090181Y063020D01*
X090226Y063020D01*
X090226Y062861D02*
X089956Y062861D01*
X090091Y062726D01*
X090091Y062906D01*
X089956Y063020D02*
X089956Y063201D01*
X090001Y063201D01*
X082226Y063360D02*
X082181Y063315D01*
X082001Y063495D01*
X082181Y063495D01*
X082226Y063450D01*
X082226Y063360D01*
X082181Y063315D02*
X082001Y063315D01*
X081956Y063360D01*
X081956Y063450D01*
X082001Y063495D01*
X082001Y063201D02*
X082181Y063020D01*
X082226Y063020D01*
X082226Y062861D02*
X081956Y062861D01*
X082091Y062726D01*
X082091Y062906D01*
X081956Y063020D02*
X081956Y063201D01*
X082001Y063201D01*
X082001Y053495D02*
X082181Y053315D01*
X082226Y053360D01*
X082226Y053450D01*
X082181Y053495D01*
X082001Y053495D01*
X081956Y053450D01*
X081956Y053360D01*
X082001Y053315D01*
X082181Y053315D01*
X082001Y053201D02*
X082181Y053020D01*
X082226Y053020D01*
X082226Y052861D02*
X081956Y052861D01*
X082091Y052726D01*
X082091Y052906D01*
X081956Y053020D02*
X081956Y053201D01*
X082001Y053201D01*
X083501Y045995D02*
X083681Y045815D01*
X083726Y045860D01*
X083726Y045950D01*
X083681Y045995D01*
X083501Y045995D01*
X083456Y045950D01*
X083456Y045860D01*
X083501Y045815D01*
X083681Y045815D01*
X083501Y045701D02*
X083681Y045520D01*
X083726Y045520D01*
X083726Y045361D02*
X083456Y045361D01*
X083591Y045226D01*
X083591Y045406D01*
X083456Y045520D02*
X083456Y045701D01*
X083501Y045701D01*
X090091Y052726D02*
X090091Y052906D01*
X090226Y052861D02*
X089956Y052861D01*
X090091Y052726D01*
X090181Y053020D02*
X090226Y053020D01*
X090181Y053020D02*
X090001Y053201D01*
X089956Y053201D01*
X089956Y053020D01*
X090001Y053315D02*
X089956Y053360D01*
X089956Y053450D01*
X090001Y053495D01*
X090181Y053315D01*
X090226Y053360D01*
X090226Y053450D01*
X090181Y053495D01*
X090001Y053495D01*
X090001Y053315D02*
X090181Y053315D01*
X091001Y046995D02*
X091181Y046815D01*
X091226Y046860D01*
X091226Y046950D01*
X091181Y046995D01*
X091001Y046995D01*
X090956Y046950D01*
X090956Y046860D01*
X091001Y046815D01*
X091181Y046815D01*
X091001Y046701D02*
X091181Y046520D01*
X091226Y046520D01*
X091226Y046361D02*
X090956Y046361D01*
X091091Y046226D01*
X091091Y046406D01*
X090956Y046520D02*
X090956Y046701D01*
X091001Y046701D01*
X090181Y037495D02*
X090226Y037450D01*
X090226Y037360D01*
X090181Y037315D01*
X090001Y037495D01*
X090181Y037495D01*
X090181Y037315D02*
X090001Y037315D01*
X089956Y037360D01*
X089956Y037450D01*
X090001Y037495D01*
X090001Y037201D02*
X090181Y037020D01*
X090226Y037020D01*
X090226Y036861D02*
X089956Y036861D01*
X090091Y036726D01*
X090091Y036906D01*
X089956Y037020D02*
X089956Y037201D01*
X090001Y037201D01*
X082226Y037360D02*
X082181Y037315D01*
X082001Y037495D01*
X082181Y037495D01*
X082226Y037450D01*
X082226Y037360D01*
X082181Y037315D02*
X082001Y037315D01*
X081956Y037360D01*
X081956Y037450D01*
X082001Y037495D01*
X082001Y037201D02*
X082181Y037020D01*
X082226Y037020D01*
X082226Y036861D02*
X081956Y036861D01*
X082091Y036726D01*
X082091Y036906D01*
X081956Y037020D02*
X081956Y037201D01*
X082001Y037201D01*
X073726Y045361D02*
X073456Y045361D01*
X073591Y045226D01*
X073591Y045406D01*
X073681Y045520D02*
X073726Y045520D01*
X073681Y045520D02*
X073501Y045701D01*
X073456Y045701D01*
X073456Y045520D01*
X073501Y045815D02*
X073456Y045860D01*
X073456Y045950D01*
X073501Y045995D01*
X073681Y045815D01*
X073726Y045860D01*
X073726Y045950D01*
X073681Y045995D01*
X073501Y045995D01*
X073501Y045815D02*
X073681Y045815D01*
X072091Y052726D02*
X071956Y052861D01*
X072226Y052861D01*
X072091Y052906D02*
X072091Y052726D01*
X072181Y053020D02*
X072226Y053020D01*
X072181Y053020D02*
X072001Y053201D01*
X071956Y053201D01*
X071956Y053020D01*
X072001Y053315D02*
X071956Y053360D01*
X071956Y053450D01*
X072001Y053495D01*
X072181Y053315D01*
X072226Y053360D01*
X072226Y053450D01*
X072181Y053495D01*
X072001Y053495D01*
X072001Y053315D02*
X072181Y053315D01*
X072091Y062726D02*
X072091Y062906D01*
X072226Y062861D02*
X071956Y062861D01*
X072091Y062726D01*
X072181Y063020D02*
X072226Y063020D01*
X072181Y063020D02*
X072001Y063201D01*
X071956Y063201D01*
X071956Y063020D01*
X072001Y063315D02*
X071956Y063360D01*
X071956Y063450D01*
X072001Y063495D01*
X072181Y063315D01*
X072226Y063360D01*
X072226Y063450D01*
X072181Y063495D01*
X072001Y063495D01*
X072001Y063315D02*
X072181Y063315D01*
X062226Y063360D02*
X062181Y063315D01*
X062001Y063495D01*
X062181Y063495D01*
X062226Y063450D01*
X062226Y063360D01*
X062181Y063315D02*
X062001Y063315D01*
X061956Y063360D01*
X061956Y063450D01*
X062001Y063495D01*
X062001Y063201D02*
X062181Y063020D01*
X062226Y063020D01*
X062226Y062861D02*
X061956Y062861D01*
X062091Y062726D01*
X062091Y062906D01*
X061956Y063020D02*
X061956Y063201D01*
X062001Y063201D01*
X062001Y053495D02*
X062181Y053315D01*
X062226Y053360D01*
X062226Y053450D01*
X062181Y053495D01*
X062001Y053495D01*
X061956Y053450D01*
X061956Y053360D01*
X062001Y053315D01*
X062181Y053315D01*
X062001Y053201D02*
X062181Y053020D01*
X062226Y053020D01*
X062226Y052861D02*
X061956Y052861D01*
X062091Y052726D01*
X062091Y052906D01*
X061956Y053020D02*
X061956Y053201D01*
X062001Y053201D01*
X063501Y045995D02*
X063681Y045815D01*
X063726Y045860D01*
X063726Y045950D01*
X063681Y045995D01*
X063501Y045995D01*
X063456Y045950D01*
X063456Y045860D01*
X063501Y045815D01*
X063681Y045815D01*
X063501Y045701D02*
X063681Y045520D01*
X063726Y045520D01*
X063726Y045361D02*
X063456Y045361D01*
X063591Y045226D01*
X063591Y045406D01*
X063456Y045520D02*
X063456Y045701D01*
X063501Y045701D01*
X062181Y037495D02*
X062226Y037450D01*
X062226Y037360D01*
X062181Y037315D01*
X062001Y037495D01*
X062181Y037495D01*
X062181Y037315D02*
X062001Y037315D01*
X061956Y037360D01*
X061956Y037450D01*
X062001Y037495D01*
X062001Y037201D02*
X062181Y037020D01*
X062226Y037020D01*
X062226Y036861D02*
X061956Y036861D01*
X062091Y036726D01*
X062091Y036906D01*
X061956Y037020D02*
X061956Y037201D01*
X062001Y037201D01*
X053726Y045361D02*
X053456Y045361D01*
X053591Y045226D01*
X053591Y045406D01*
X053681Y045520D02*
X053726Y045520D01*
X053681Y045520D02*
X053501Y045701D01*
X053456Y045701D01*
X053456Y045520D01*
X053501Y045815D02*
X053456Y045860D01*
X053456Y045950D01*
X053501Y045995D01*
X053681Y045815D01*
X053726Y045860D01*
X053726Y045950D01*
X053681Y045995D01*
X053501Y045995D01*
X053501Y045815D02*
X053681Y045815D01*
X052091Y052726D02*
X051956Y052861D01*
X052226Y052861D01*
X052091Y052906D02*
X052091Y052726D01*
X052181Y053020D02*
X052226Y053020D01*
X052181Y053020D02*
X052001Y053201D01*
X051956Y053201D01*
X051956Y053020D01*
X052001Y053315D02*
X051956Y053360D01*
X051956Y053450D01*
X052001Y053495D01*
X052181Y053315D01*
X052226Y053360D01*
X052226Y053450D01*
X052181Y053495D01*
X052001Y053495D01*
X052001Y053315D02*
X052181Y053315D01*
X052091Y062726D02*
X052091Y062906D01*
X052226Y062861D02*
X051956Y062861D01*
X052091Y062726D01*
X052181Y063020D02*
X052001Y063201D01*
X051956Y063201D01*
X051956Y063020D01*
X052181Y063020D02*
X052226Y063020D01*
X052181Y063315D02*
X052001Y063495D01*
X052181Y063495D01*
X052226Y063450D01*
X052226Y063360D01*
X052181Y063315D01*
X052001Y063315D01*
X051956Y063360D01*
X051956Y063450D01*
X052001Y063495D01*
X041726Y053450D02*
X041726Y053360D01*
X041681Y053315D01*
X041501Y053495D01*
X041681Y053495D01*
X041726Y053450D01*
X041681Y053315D02*
X041501Y053315D01*
X041456Y053360D01*
X041456Y053450D01*
X041501Y053495D01*
X041501Y053201D02*
X041681Y053020D01*
X041726Y053020D01*
X041726Y052861D02*
X041456Y052861D01*
X041591Y052726D01*
X041591Y052906D01*
X041456Y053020D02*
X041456Y053201D01*
X041501Y053201D01*
X043001Y045995D02*
X043181Y045815D01*
X043226Y045860D01*
X043226Y045950D01*
X043181Y045995D01*
X043001Y045995D01*
X042956Y045950D01*
X042956Y045860D01*
X043001Y045815D01*
X043181Y045815D01*
X043001Y045701D02*
X043181Y045520D01*
X043226Y045520D01*
X043226Y045361D02*
X042956Y045361D01*
X043091Y045226D01*
X043091Y045406D01*
X042956Y045520D02*
X042956Y045701D01*
X043001Y045701D01*
X041681Y037495D02*
X041501Y037495D01*
X041681Y037315D01*
X041726Y037360D01*
X041726Y037450D01*
X041681Y037495D01*
X041681Y037315D02*
X041501Y037315D01*
X041456Y037360D01*
X041456Y037450D01*
X041501Y037495D01*
X041501Y037201D02*
X041681Y037020D01*
X041726Y037020D01*
X041726Y036861D02*
X041456Y036861D01*
X041591Y036726D01*
X041591Y036906D01*
X041456Y037020D02*
X041456Y037201D01*
X041501Y037201D01*
X041501Y027495D02*
X041681Y027315D01*
X041726Y027360D01*
X041726Y027450D01*
X041681Y027495D01*
X041501Y027495D01*
X041456Y027450D01*
X041456Y027360D01*
X041501Y027315D01*
X041681Y027315D01*
X041501Y027201D02*
X041681Y027020D01*
X041726Y027020D01*
X041726Y026861D02*
X041456Y026861D01*
X041591Y026726D01*
X041591Y026906D01*
X041456Y027020D02*
X041456Y027201D01*
X041501Y027201D01*
X032226Y027360D02*
X032181Y027315D01*
X032001Y027495D01*
X032181Y027495D01*
X032226Y027450D01*
X032226Y027360D01*
X032181Y027315D02*
X032001Y027315D01*
X031956Y027360D01*
X031956Y027450D01*
X032001Y027495D01*
X032001Y027201D02*
X032181Y027020D01*
X032226Y027020D01*
X032226Y026861D02*
X031956Y026861D01*
X032091Y026726D01*
X032091Y026906D01*
X031956Y027020D02*
X031956Y027201D01*
X032001Y027201D01*
X032001Y017495D02*
X032181Y017315D01*
X032226Y017360D01*
X032226Y017450D01*
X032181Y017495D01*
X032001Y017495D01*
X031956Y017450D01*
X031956Y017360D01*
X032001Y017315D01*
X032181Y017315D01*
X032001Y017201D02*
X032181Y017020D01*
X032226Y017020D01*
X032226Y016861D02*
X031956Y016861D01*
X032091Y016726D01*
X032091Y016906D01*
X031956Y017020D02*
X031956Y017201D01*
X032001Y017201D01*
X041456Y017201D02*
X041456Y017020D01*
X041456Y016861D02*
X041591Y016726D01*
X041591Y016906D01*
X041726Y016861D02*
X041456Y016861D01*
X041681Y017020D02*
X041501Y017201D01*
X041456Y017201D01*
X041501Y017315D02*
X041456Y017360D01*
X041456Y017450D01*
X041501Y017495D01*
X041681Y017315D01*
X041726Y017360D01*
X041726Y017450D01*
X041681Y017495D01*
X041501Y017495D01*
X041501Y017315D02*
X041681Y017315D01*
X041681Y017020D02*
X041726Y017020D01*
X041681Y007495D02*
X041501Y007495D01*
X041681Y007315D01*
X041726Y007360D01*
X041726Y007450D01*
X041681Y007495D01*
X041681Y007315D02*
X041501Y007315D01*
X041456Y007360D01*
X041456Y007450D01*
X041501Y007495D01*
X041501Y007201D02*
X041681Y007020D01*
X041726Y007020D01*
X041726Y006861D02*
X041456Y006861D01*
X041591Y006726D01*
X041591Y006906D01*
X041456Y007020D02*
X041456Y007201D01*
X041501Y007201D01*
X032226Y007360D02*
X032181Y007315D01*
X032001Y007495D01*
X032181Y007495D01*
X032226Y007450D01*
X032226Y007360D01*
X032181Y007315D02*
X032001Y007315D01*
X031956Y007360D01*
X031956Y007450D01*
X032001Y007495D01*
X032001Y007201D02*
X032181Y007020D01*
X032226Y007020D01*
X032226Y006861D02*
X031956Y006861D01*
X032091Y006726D01*
X032091Y006906D01*
X031956Y007020D02*
X031956Y007201D01*
X032001Y007201D01*
X022226Y007360D02*
X022181Y007315D01*
X022001Y007495D01*
X022181Y007495D01*
X022226Y007450D01*
X022226Y007360D01*
X022181Y007315D02*
X022001Y007315D01*
X021956Y007360D01*
X021956Y007450D01*
X022001Y007495D01*
X022001Y007201D02*
X022181Y007020D01*
X022226Y007020D01*
X022226Y006861D02*
X021956Y006861D01*
X022091Y006726D01*
X022091Y006906D01*
X021956Y007020D02*
X021956Y007201D01*
X022001Y007201D01*
X022091Y016726D02*
X022091Y016906D01*
X022226Y016861D02*
X021956Y016861D01*
X022091Y016726D01*
X022181Y017020D02*
X022226Y017020D01*
X022181Y017020D02*
X022001Y017201D01*
X021956Y017201D01*
X021956Y017020D01*
X022001Y017315D02*
X021956Y017360D01*
X021956Y017450D01*
X022001Y017495D01*
X022181Y017315D01*
X022226Y017360D01*
X022226Y017450D01*
X022181Y017495D01*
X022001Y017495D01*
X022001Y017315D02*
X022181Y017315D01*
X022091Y026726D02*
X022091Y026906D01*
X022226Y026861D02*
X021956Y026861D01*
X022091Y026726D01*
X022181Y027020D02*
X022226Y027020D01*
X022181Y027020D02*
X022001Y027201D01*
X021956Y027201D01*
X021956Y027020D01*
X022001Y027315D02*
X021956Y027360D01*
X021956Y027450D01*
X022001Y027495D01*
X022181Y027315D01*
X022226Y027360D01*
X022226Y027450D01*
X022181Y027495D01*
X022001Y027495D01*
X022001Y027315D02*
X022181Y027315D01*
X051956Y027360D02*
X051956Y027450D01*
X052001Y027495D01*
X052181Y027315D01*
X052226Y027360D01*
X052226Y027450D01*
X052181Y027495D01*
X052001Y027495D01*
X051956Y027360D02*
X052001Y027315D01*
X052181Y027315D01*
X052001Y027201D02*
X052181Y027020D01*
X052226Y027020D01*
X052226Y026861D02*
X051956Y026861D01*
X052091Y026726D01*
X052091Y026906D01*
X051956Y027020D02*
X051956Y027201D01*
X052001Y027201D01*
X052091Y036726D02*
X051956Y036861D01*
X052226Y036861D01*
X052091Y036906D02*
X052091Y036726D01*
X052181Y037020D02*
X052226Y037020D01*
X052181Y037020D02*
X052001Y037201D01*
X051956Y037201D01*
X051956Y037020D01*
X052001Y037315D02*
X051956Y037360D01*
X051956Y037450D01*
X052001Y037495D01*
X052181Y037315D01*
X052226Y037360D01*
X052226Y037450D01*
X052181Y037495D01*
X052001Y037495D01*
X052001Y037315D02*
X052181Y037315D01*
X062001Y027495D02*
X062181Y027315D01*
X062226Y027360D01*
X062226Y027450D01*
X062181Y027495D01*
X062001Y027495D01*
X061956Y027450D01*
X061956Y027360D01*
X062001Y027315D01*
X062181Y027315D01*
X062001Y027201D02*
X062181Y027020D01*
X062226Y027020D01*
X062226Y026861D02*
X061956Y026861D01*
X062091Y026726D01*
X062091Y026906D01*
X061956Y027020D02*
X061956Y027201D01*
X062001Y027201D01*
X062001Y017495D02*
X062181Y017315D01*
X062226Y017360D01*
X062226Y017450D01*
X062181Y017495D01*
X062001Y017495D01*
X061956Y017450D01*
X061956Y017360D01*
X062001Y017315D01*
X062181Y017315D01*
X062001Y017201D02*
X062181Y017020D01*
X062226Y017020D01*
X062226Y016861D02*
X061956Y016861D01*
X062091Y016726D01*
X062091Y016906D01*
X061956Y017020D02*
X061956Y017201D01*
X062001Y017201D01*
X052226Y017360D02*
X052181Y017315D01*
X052001Y017495D01*
X052181Y017495D01*
X052226Y017450D01*
X052226Y017360D01*
X052181Y017315D02*
X052001Y017315D01*
X051956Y017360D01*
X051956Y017450D01*
X052001Y017495D01*
X052001Y017201D02*
X052181Y017020D01*
X052226Y017020D01*
X052226Y016861D02*
X051956Y016861D01*
X052091Y016726D01*
X052091Y016906D01*
X051956Y017020D02*
X051956Y017201D01*
X052001Y017201D01*
X052001Y007495D02*
X052181Y007315D01*
X052226Y007360D01*
X052226Y007450D01*
X052181Y007495D01*
X052001Y007495D01*
X051956Y007450D01*
X051956Y007360D01*
X052001Y007315D01*
X052181Y007315D01*
X052001Y007201D02*
X052181Y007020D01*
X052226Y007020D01*
X052226Y006861D02*
X051956Y006861D01*
X052091Y006726D01*
X052091Y006906D01*
X051956Y007020D02*
X051956Y007201D01*
X052001Y007201D01*
X061956Y007201D02*
X062001Y007201D01*
X062181Y007020D01*
X062226Y007020D01*
X062226Y006861D02*
X061956Y006861D01*
X062091Y006726D01*
X062091Y006906D01*
X061956Y007020D02*
X061956Y007201D01*
X062001Y007315D02*
X061956Y007360D01*
X061956Y007450D01*
X062001Y007495D01*
X062181Y007315D01*
X062226Y007360D01*
X062226Y007450D01*
X062181Y007495D01*
X062001Y007495D01*
X062001Y007315D02*
X062181Y007315D01*
X071956Y007360D02*
X071956Y007450D01*
X072001Y007495D01*
X072181Y007315D01*
X072226Y007360D01*
X072226Y007450D01*
X072181Y007495D01*
X072001Y007495D01*
X071956Y007360D02*
X072001Y007315D01*
X072181Y007315D01*
X072001Y007201D02*
X072181Y007020D01*
X072226Y007020D01*
X072226Y006861D02*
X071956Y006861D01*
X072091Y006726D01*
X072091Y006906D01*
X071956Y007020D02*
X071956Y007201D01*
X072001Y007201D01*
X072091Y016726D02*
X071956Y016861D01*
X072226Y016861D01*
X072091Y016906D02*
X072091Y016726D01*
X072181Y017020D02*
X072226Y017020D01*
X072181Y017020D02*
X072001Y017201D01*
X071956Y017201D01*
X071956Y017020D01*
X072001Y017315D02*
X071956Y017360D01*
X071956Y017450D01*
X072001Y017495D01*
X072181Y017315D01*
X072226Y017360D01*
X072226Y017450D01*
X072181Y017495D01*
X072001Y017495D01*
X072001Y017315D02*
X072181Y017315D01*
X072091Y026726D02*
X071956Y026861D01*
X072226Y026861D01*
X072091Y026906D02*
X072091Y026726D01*
X072181Y027020D02*
X072226Y027020D01*
X072181Y027020D02*
X072001Y027201D01*
X071956Y027201D01*
X071956Y027020D01*
X072001Y027315D02*
X071956Y027360D01*
X071956Y027450D01*
X072001Y027495D01*
X072181Y027315D01*
X072226Y027360D01*
X072226Y027450D01*
X072181Y027495D01*
X072001Y027495D01*
X072001Y027315D02*
X072181Y027315D01*
X072091Y036726D02*
X071956Y036861D01*
X072226Y036861D01*
X072091Y036906D02*
X072091Y036726D01*
X072181Y037020D02*
X072226Y037020D01*
X072181Y037020D02*
X072001Y037201D01*
X071956Y037201D01*
X071956Y037020D01*
X072001Y037315D02*
X071956Y037360D01*
X071956Y037450D01*
X072001Y037495D01*
X072181Y037315D01*
X072226Y037360D01*
X072226Y037450D01*
X072181Y037495D01*
X072001Y037495D01*
X072001Y037315D02*
X072181Y037315D01*
X082001Y027495D02*
X082181Y027315D01*
X082226Y027360D01*
X082226Y027450D01*
X082181Y027495D01*
X082001Y027495D01*
X081956Y027450D01*
X081956Y027360D01*
X082001Y027315D01*
X082181Y027315D01*
X082001Y027201D02*
X082181Y027020D01*
X082226Y027020D01*
X082226Y026861D02*
X081956Y026861D01*
X082091Y026726D01*
X082091Y026906D01*
X081956Y027020D02*
X081956Y027201D01*
X082001Y027201D01*
X089956Y027201D02*
X090001Y027201D01*
X090181Y027020D01*
X090226Y027020D01*
X090226Y026861D02*
X089956Y026861D01*
X090091Y026726D01*
X090091Y026906D01*
X089956Y027020D02*
X089956Y027201D01*
X090001Y027315D02*
X089956Y027360D01*
X089956Y027450D01*
X090001Y027495D01*
X090181Y027315D01*
X090226Y027360D01*
X090226Y027450D01*
X090181Y027495D01*
X090001Y027495D01*
X090001Y027315D02*
X090181Y027315D01*
X090181Y017495D02*
X090226Y017450D01*
X090226Y017360D01*
X090181Y017315D01*
X090001Y017495D01*
X090181Y017495D01*
X090181Y017315D02*
X090001Y017315D01*
X089956Y017360D01*
X089956Y017450D01*
X090001Y017495D01*
X090001Y017201D02*
X090181Y017020D01*
X090226Y017020D01*
X090226Y016861D02*
X089956Y016861D01*
X090091Y016726D01*
X090091Y016906D01*
X089956Y017020D02*
X089956Y017201D01*
X090001Y017201D01*
X082226Y017360D02*
X082181Y017315D01*
X082001Y017495D01*
X082181Y017495D01*
X082226Y017450D01*
X082226Y017360D01*
X082181Y017315D02*
X082001Y017315D01*
X081956Y017360D01*
X081956Y017450D01*
X082001Y017495D01*
X082001Y017201D02*
X082181Y017020D01*
X082226Y017020D01*
X082226Y016861D02*
X081956Y016861D01*
X082091Y016726D01*
X082091Y016906D01*
X081956Y017020D02*
X081956Y017201D01*
X082001Y017201D01*
X082001Y007495D02*
X082181Y007315D01*
X082226Y007360D01*
X082226Y007450D01*
X082181Y007495D01*
X082001Y007495D01*
X081956Y007450D01*
X081956Y007360D01*
X082001Y007315D01*
X082181Y007315D01*
X082001Y007201D02*
X082181Y007020D01*
X082226Y007020D01*
X082226Y006861D02*
X081956Y006861D01*
X082091Y006726D01*
X082091Y006906D01*
X081956Y007020D02*
X081956Y007201D01*
X082001Y007201D01*
X089956Y007201D02*
X090001Y007201D01*
X090181Y007020D01*
X090226Y007020D01*
X090226Y006861D02*
X089956Y006861D01*
X090091Y006726D01*
X090091Y006906D01*
X089956Y007020D02*
X089956Y007201D01*
X090001Y007315D02*
X089956Y007360D01*
X089956Y007450D01*
X090001Y007495D01*
X090181Y007315D01*
X090226Y007360D01*
X090226Y007450D01*
X090181Y007495D01*
X090001Y007495D01*
X090001Y007315D02*
X090181Y007315D01*
X032091Y072726D02*
X032091Y072906D01*
X032226Y072861D02*
X031956Y072861D01*
X032091Y072726D01*
X032181Y073020D02*
X032226Y073020D01*
X032181Y073020D02*
X032001Y073201D01*
X031956Y073201D01*
X031956Y073020D01*
X032001Y073315D02*
X031956Y073360D01*
X031956Y073450D01*
X032001Y073495D01*
X032181Y073315D01*
X032226Y073360D01*
X032226Y073450D01*
X032181Y073495D01*
X032001Y073495D01*
X032001Y073315D02*
X032181Y073315D01*
X034361Y080976D02*
X034361Y081246D01*
X034226Y081111D01*
X034406Y081111D01*
X034520Y081021D02*
X034520Y080976D01*
X034520Y081021D02*
X034701Y081201D01*
X034701Y081246D01*
X034520Y081246D01*
X034815Y081201D02*
X034860Y081246D01*
X034950Y081246D01*
X034995Y081201D01*
X034815Y081021D01*
X034860Y080976D01*
X034950Y080976D01*
X034995Y081021D01*
X034995Y081201D01*
X034815Y081201D02*
X034815Y081021D01*
X034860Y081976D02*
X034815Y082021D01*
X034995Y082201D01*
X034995Y082021D01*
X034950Y081976D01*
X034860Y081976D01*
X034815Y082021D02*
X034815Y082201D01*
X034860Y082246D01*
X034950Y082246D01*
X034995Y082201D01*
X034701Y082201D02*
X034520Y082021D01*
X034520Y081976D01*
X034361Y081976D02*
X034361Y082246D01*
X034226Y082111D01*
X034406Y082111D01*
X034520Y082246D02*
X034701Y082246D01*
X034701Y082201D01*
X024995Y082201D02*
X024815Y082021D01*
X024860Y081976D01*
X024950Y081976D01*
X024995Y082021D01*
X024995Y082201D01*
X024950Y082246D01*
X024860Y082246D01*
X024815Y082201D01*
X024815Y082021D01*
X024701Y082201D02*
X024520Y082021D01*
X024520Y081976D01*
X024361Y081976D02*
X024361Y082246D01*
X024226Y082111D01*
X024406Y082111D01*
X024520Y082246D02*
X024701Y082246D01*
X024701Y082201D01*
X024701Y081246D02*
X024520Y081246D01*
X024361Y081246D02*
X024226Y081111D01*
X024406Y081111D01*
X024361Y080976D02*
X024361Y081246D01*
X024520Y081021D02*
X024520Y080976D01*
X024520Y081021D02*
X024701Y081201D01*
X024701Y081246D01*
X024815Y081201D02*
X024860Y081246D01*
X024950Y081246D01*
X024995Y081201D01*
X024815Y081021D01*
X024860Y080976D01*
X024950Y080976D01*
X024995Y081021D01*
X024995Y081201D01*
X024815Y081201D02*
X024815Y081021D01*
X022181Y073495D02*
X022226Y073450D01*
X022226Y073360D01*
X022181Y073315D01*
X022001Y073495D01*
X022181Y073495D01*
X022181Y073315D02*
X022001Y073315D01*
X021956Y073360D01*
X021956Y073450D01*
X022001Y073495D01*
X022001Y073201D02*
X022181Y073020D01*
X022226Y073020D01*
X022226Y072861D02*
X021956Y072861D01*
X022091Y072726D01*
X022091Y072906D01*
X021956Y073020D02*
X021956Y073201D01*
X022001Y073201D01*
X015450Y080976D02*
X015360Y080976D01*
X015315Y081021D01*
X015495Y081201D01*
X015495Y081021D01*
X015450Y080976D01*
X015315Y081021D02*
X015315Y081201D01*
X015360Y081246D01*
X015450Y081246D01*
X015495Y081201D01*
X015201Y081201D02*
X015020Y081021D01*
X015020Y080976D01*
X014861Y080976D02*
X014861Y081246D01*
X014726Y081111D01*
X014906Y081111D01*
X015020Y081246D02*
X015201Y081246D01*
X015201Y081201D01*
X015360Y081976D02*
X015315Y082021D01*
X015495Y082201D01*
X015495Y082021D01*
X015450Y081976D01*
X015360Y081976D01*
X015315Y082021D02*
X015315Y082201D01*
X015360Y082246D01*
X015450Y082246D01*
X015495Y082201D01*
X015201Y082201D02*
X015020Y082021D01*
X015020Y081976D01*
X014861Y081976D02*
X014861Y082246D01*
X014726Y082111D01*
X014906Y082111D01*
X015020Y082246D02*
X015201Y082246D01*
X015201Y082201D01*
X006995Y082201D02*
X006815Y082021D01*
X006860Y081976D01*
X006950Y081976D01*
X006995Y082021D01*
X006995Y082201D01*
X006950Y082246D01*
X006860Y082246D01*
X006815Y082201D01*
X006815Y082021D01*
X006701Y082201D02*
X006520Y082021D01*
X006520Y081976D01*
X006361Y081976D02*
X006361Y082246D01*
X006226Y082111D01*
X006406Y082111D01*
X006520Y082246D02*
X006701Y082246D01*
X006701Y082201D01*
X006701Y081246D02*
X006520Y081246D01*
X006361Y081246D02*
X006226Y081111D01*
X006406Y081111D01*
X006361Y080976D02*
X006361Y081246D01*
X006520Y081021D02*
X006520Y080976D01*
X006520Y081021D02*
X006701Y081201D01*
X006701Y081246D01*
X006815Y081201D02*
X006860Y081246D01*
X006950Y081246D01*
X006995Y081201D01*
X006815Y081021D01*
X006860Y080976D01*
X006950Y080976D01*
X006995Y081021D01*
X006995Y081201D01*
X006815Y081201D02*
X006815Y081021D01*
X004181Y073495D02*
X004226Y073450D01*
X004226Y073360D01*
X004181Y073315D01*
X004001Y073495D01*
X004181Y073495D01*
X004181Y073315D02*
X004001Y073315D01*
X003956Y073360D01*
X003956Y073450D01*
X004001Y073495D01*
X004001Y073201D02*
X004181Y073020D01*
X004226Y073020D01*
X004226Y072861D02*
X003956Y072861D01*
X004091Y072726D01*
X004091Y072906D01*
X003956Y073020D02*
X003956Y073201D01*
X004001Y073201D01*
X011956Y073201D02*
X012001Y073201D01*
X012181Y073020D01*
X012226Y073020D01*
X012226Y072861D02*
X011956Y072861D01*
X012091Y072726D01*
X012091Y072906D01*
X011956Y073020D02*
X011956Y073201D01*
X012001Y073315D02*
X011956Y073360D01*
X011956Y073450D01*
X012001Y073495D01*
X012181Y073315D01*
X012226Y073360D01*
X012226Y073450D01*
X012181Y073495D01*
X012001Y073495D01*
X012001Y073315D02*
X012181Y073315D01*
X012181Y063495D02*
X012226Y063450D01*
X012226Y063360D01*
X012181Y063315D01*
X012001Y063495D01*
X012181Y063495D01*
X012181Y063315D02*
X012001Y063315D01*
X011956Y063360D01*
X011956Y063450D01*
X012001Y063495D01*
X012001Y063201D02*
X012181Y063020D01*
X012226Y063020D01*
X012226Y062861D02*
X011956Y062861D01*
X012091Y062726D01*
X012091Y062906D01*
X011956Y063020D02*
X011956Y063201D01*
X012001Y063201D01*
X004226Y063360D02*
X004181Y063315D01*
X004001Y063495D01*
X004181Y063495D01*
X004226Y063450D01*
X004226Y063360D01*
X004181Y063315D02*
X004001Y063315D01*
X003956Y063360D01*
X003956Y063450D01*
X004001Y063495D01*
X004001Y063201D02*
X004181Y063020D01*
X004226Y063020D01*
X004226Y062861D02*
X003956Y062861D01*
X004091Y062726D01*
X004091Y062906D01*
X003956Y063020D02*
X003956Y063201D01*
X004001Y063201D01*
X021956Y063201D02*
X022001Y063201D01*
X022181Y063020D01*
X022226Y063020D01*
X022226Y062861D02*
X021956Y062861D01*
X022091Y062726D01*
X022091Y062906D01*
X021956Y063020D02*
X021956Y063201D01*
X022001Y063315D02*
X021956Y063360D01*
X021956Y063450D01*
X022001Y063495D01*
X022181Y063315D01*
X022226Y063360D01*
X022226Y063450D01*
X022181Y063495D01*
X022001Y063495D01*
X022001Y063315D02*
X022181Y063315D01*
D11*
X003628Y008841D02*
X003628Y006361D01*
X004573Y006361D01*
X004573Y008841D01*
X003628Y008841D01*
X003628Y016361D02*
X003628Y018841D01*
X004573Y018841D01*
X004573Y016361D01*
X003628Y016361D01*
X011628Y016361D02*
X011628Y018841D01*
X012573Y018841D01*
X012573Y016361D01*
X011628Y016361D01*
X011628Y008841D02*
X012573Y008841D01*
X012573Y006361D01*
X011628Y006361D01*
X011628Y008841D01*
X021628Y008841D02*
X021628Y006361D01*
X022573Y006361D01*
X022573Y008841D01*
X021628Y008841D01*
X021628Y016361D02*
X021628Y018841D01*
X022573Y018841D01*
X022573Y016361D01*
X021628Y016361D01*
X021628Y026361D02*
X021628Y028841D01*
X022573Y028841D01*
X022573Y026361D01*
X021628Y026361D01*
X012573Y026361D02*
X012573Y028841D01*
X011628Y028841D01*
X011628Y026361D01*
X012573Y026361D01*
X004573Y026361D02*
X004573Y028841D01*
X003628Y028841D01*
X003628Y026361D01*
X004573Y026361D01*
X004573Y036361D02*
X003628Y036361D01*
X003628Y038841D01*
X004573Y038841D01*
X004573Y036361D01*
X011628Y036361D02*
X011628Y038841D01*
X012573Y038841D01*
X012573Y036361D01*
X011628Y036361D01*
X013128Y044861D02*
X013128Y047341D01*
X014073Y047341D01*
X014073Y044861D01*
X013128Y044861D01*
X006073Y044861D02*
X006073Y047341D01*
X005128Y047341D01*
X005128Y044861D01*
X006073Y044861D01*
X004573Y052361D02*
X003628Y052361D01*
X003628Y054841D01*
X004573Y054841D01*
X004573Y052361D01*
X011628Y052361D02*
X011628Y054841D01*
X012573Y054841D01*
X012573Y052361D01*
X011628Y052361D01*
X011628Y062361D02*
X011628Y064841D01*
X012573Y064841D01*
X012573Y062361D01*
X011628Y062361D01*
X004573Y062361D02*
X004573Y064841D01*
X003628Y064841D01*
X003628Y062361D01*
X004573Y062361D01*
X004573Y072361D02*
X003628Y072361D01*
X003628Y074841D01*
X004573Y074841D01*
X004573Y072361D01*
X009601Y072851D02*
X009851Y072601D01*
X010351Y072601D01*
X010601Y072851D01*
X010601Y073351D01*
X010351Y073601D01*
X010601Y073851D01*
X010601Y074351D01*
X010351Y074601D01*
X010601Y074851D01*
X010601Y075351D01*
X010351Y075601D01*
X010601Y075851D01*
X010601Y076351D01*
X010351Y076601D01*
X010601Y076851D01*
X010601Y077351D01*
X010351Y077601D01*
X010601Y077851D01*
X010601Y078351D01*
X010351Y078601D01*
X010601Y078851D01*
X010601Y079351D01*
X010351Y079601D01*
X010601Y079851D01*
X010601Y080351D01*
X010351Y080601D01*
X010601Y080851D01*
X010601Y081351D01*
X010351Y081601D01*
X010601Y081851D01*
X010601Y082351D01*
X010351Y082601D01*
X009851Y082601D01*
X009601Y082351D01*
X009601Y081851D01*
X009851Y081601D01*
X009601Y081351D01*
X009601Y080851D01*
X009851Y080601D01*
X009601Y080351D01*
X009601Y079851D01*
X009851Y079601D01*
X009601Y079351D01*
X009601Y078851D01*
X009851Y078601D01*
X009601Y078351D01*
X009601Y077851D01*
X009851Y077601D01*
X009601Y077351D01*
X009601Y076851D01*
X009851Y076601D01*
X009601Y076351D01*
X009601Y075851D01*
X009851Y075601D01*
X009601Y075351D01*
X009601Y074851D01*
X009851Y074601D01*
X009601Y074351D01*
X009601Y073851D01*
X009851Y073601D01*
X009601Y073351D01*
X009601Y072851D01*
X011628Y072361D02*
X011628Y074841D01*
X012573Y074841D01*
X012573Y072361D01*
X011628Y072361D01*
X019601Y072851D02*
X019851Y072601D01*
X020351Y072601D01*
X020601Y072851D01*
X020601Y073351D01*
X020351Y073601D01*
X020601Y073851D01*
X020601Y074351D01*
X020351Y074601D01*
X020601Y074851D01*
X020601Y075351D01*
X020351Y075601D01*
X020601Y075851D01*
X020601Y076351D01*
X020351Y076601D01*
X020601Y076851D01*
X020601Y077351D01*
X020351Y077601D01*
X020601Y077851D01*
X020601Y078351D01*
X020351Y078601D01*
X020601Y078851D01*
X020601Y079351D01*
X020351Y079601D01*
X020601Y079851D01*
X020601Y080351D01*
X020351Y080601D01*
X020601Y080851D01*
X020601Y081351D01*
X020351Y081601D01*
X020601Y081851D01*
X020601Y082351D01*
X020351Y082601D01*
X019851Y082601D01*
X019601Y082351D01*
X019601Y081851D01*
X019851Y081601D01*
X019601Y081351D01*
X019601Y080851D01*
X019851Y080601D01*
X019601Y080351D01*
X019601Y079851D01*
X019851Y079601D01*
X019601Y079351D01*
X019601Y078851D01*
X019851Y078601D01*
X019601Y078351D01*
X019601Y077851D01*
X019851Y077601D01*
X019601Y077351D01*
X019601Y076851D01*
X019851Y076601D01*
X019601Y076351D01*
X019601Y075851D01*
X019851Y075601D01*
X019601Y075351D01*
X019601Y074851D01*
X019851Y074601D01*
X019601Y074351D01*
X019601Y073851D01*
X019851Y073601D01*
X019601Y073351D01*
X019601Y072851D01*
X021628Y072361D02*
X021628Y074841D01*
X022573Y074841D01*
X022573Y072361D01*
X021628Y072361D01*
X021628Y064841D02*
X022573Y064841D01*
X022573Y062361D01*
X021628Y062361D01*
X021628Y064841D01*
X029601Y072851D02*
X029601Y073351D01*
X029851Y073601D01*
X029601Y073851D01*
X029601Y074351D01*
X029851Y074601D01*
X029601Y074851D01*
X029601Y075351D01*
X029851Y075601D01*
X029601Y075851D01*
X029601Y076351D01*
X029851Y076601D01*
X029601Y076851D01*
X029601Y077351D01*
X029851Y077601D01*
X029601Y077851D01*
X029601Y078351D01*
X029851Y078601D01*
X029601Y078851D01*
X029601Y079351D01*
X029851Y079601D01*
X029601Y079851D01*
X029601Y080351D01*
X029851Y080601D01*
X029601Y080851D01*
X029601Y081351D01*
X029851Y081601D01*
X029601Y081851D01*
X029601Y082351D01*
X029851Y082601D01*
X030351Y082601D01*
X030601Y082351D01*
X030601Y081851D01*
X030351Y081601D01*
X030601Y081351D01*
X030601Y080851D01*
X030351Y080601D01*
X030601Y080351D01*
X030601Y079851D01*
X030351Y079601D01*
X030601Y079351D01*
X030601Y078851D01*
X030351Y078601D01*
X030601Y078351D01*
X030601Y077851D01*
X030351Y077601D01*
X030601Y077351D01*
X030601Y076851D01*
X030351Y076601D01*
X030601Y076351D01*
X030601Y075851D01*
X030351Y075601D01*
X030601Y075351D01*
X030601Y074851D01*
X030351Y074601D01*
X030601Y074351D01*
X030601Y073851D01*
X030351Y073601D01*
X030601Y073351D01*
X030601Y072851D01*
X030351Y072601D01*
X029851Y072601D01*
X029601Y072851D01*
X031628Y072361D02*
X031628Y074841D01*
X032573Y074841D01*
X032573Y072361D01*
X031628Y072361D01*
X031628Y064841D02*
X032573Y064841D01*
X032573Y062361D01*
X031628Y062361D01*
X031628Y064841D01*
X039601Y072851D02*
X039851Y072601D01*
X040351Y072601D01*
X040601Y072851D01*
X040601Y073351D01*
X040351Y073601D01*
X040601Y073851D01*
X040601Y074351D01*
X040351Y074601D01*
X040601Y074851D01*
X040601Y075351D01*
X040351Y075601D01*
X040601Y075851D01*
X040601Y076351D01*
X040351Y076601D01*
X040601Y076851D01*
X040601Y077351D01*
X040351Y077601D01*
X040601Y077851D01*
X040601Y078351D01*
X040351Y078601D01*
X040601Y078851D01*
X040601Y079351D01*
X040351Y079601D01*
X040601Y079851D01*
X040601Y080351D01*
X040351Y080601D01*
X040601Y080851D01*
X040601Y081351D01*
X040351Y081601D01*
X040601Y081851D01*
X040601Y082351D01*
X040351Y082601D01*
X039851Y082601D01*
X039601Y082351D01*
X039601Y081851D01*
X039851Y081601D01*
X039601Y081351D01*
X039601Y080851D01*
X039851Y080601D01*
X039601Y080351D01*
X039601Y079851D01*
X039851Y079601D01*
X039601Y079351D01*
X039601Y078851D01*
X039851Y078601D01*
X039601Y078351D01*
X039601Y077851D01*
X039851Y077601D01*
X039601Y077351D01*
X039601Y076851D01*
X039851Y076601D01*
X039601Y076351D01*
X039601Y075851D01*
X039851Y075601D01*
X039601Y075351D01*
X039601Y074851D01*
X039851Y074601D01*
X039601Y074351D01*
X039601Y073851D01*
X039851Y073601D01*
X039601Y073351D01*
X039601Y072851D01*
X041128Y072361D02*
X041128Y074841D01*
X042073Y074841D01*
X042073Y072361D01*
X041128Y072361D01*
X041128Y064841D02*
X042073Y064841D01*
X042073Y062361D01*
X041128Y062361D01*
X041128Y064841D01*
X049601Y072851D02*
X049601Y073351D01*
X049851Y073601D01*
X049601Y073851D01*
X049601Y074351D01*
X049851Y074601D01*
X049601Y074851D01*
X049601Y075351D01*
X049851Y075601D01*
X049601Y075851D01*
X049601Y076351D01*
X049851Y076601D01*
X049601Y076851D01*
X049601Y077351D01*
X049851Y077601D01*
X049601Y077851D01*
X049601Y078351D01*
X049851Y078601D01*
X049601Y078851D01*
X049601Y079351D01*
X049851Y079601D01*
X049601Y079851D01*
X049601Y080351D01*
X049851Y080601D01*
X049601Y080851D01*
X049601Y081351D01*
X049851Y081601D01*
X049601Y081851D01*
X049601Y082351D01*
X049851Y082601D01*
X050351Y082601D01*
X050601Y082351D01*
X050601Y081851D01*
X050351Y081601D01*
X050601Y081351D01*
X050601Y080851D01*
X050351Y080601D01*
X050601Y080351D01*
X050601Y079851D01*
X050351Y079601D01*
X050601Y079351D01*
X050601Y078851D01*
X050351Y078601D01*
X050601Y078351D01*
X050601Y077851D01*
X050351Y077601D01*
X050601Y077351D01*
X050601Y076851D01*
X050351Y076601D01*
X050601Y076351D01*
X050601Y075851D01*
X050351Y075601D01*
X050601Y075351D01*
X050601Y074851D01*
X050351Y074601D01*
X050601Y074351D01*
X050601Y073851D01*
X050351Y073601D01*
X050601Y073351D01*
X050601Y072851D01*
X050351Y072601D01*
X049851Y072601D01*
X049601Y072851D01*
X051628Y072361D02*
X051628Y074841D01*
X052573Y074841D01*
X052573Y072361D01*
X051628Y072361D01*
X051628Y064841D02*
X052573Y064841D01*
X052573Y062361D01*
X051628Y062361D01*
X051628Y064841D01*
X059601Y072851D02*
X059851Y072601D01*
X060351Y072601D01*
X060601Y072851D01*
X060601Y073351D01*
X060351Y073601D01*
X060601Y073851D01*
X060601Y074351D01*
X060351Y074601D01*
X060601Y074851D01*
X060601Y075351D01*
X060351Y075601D01*
X060601Y075851D01*
X060601Y076351D01*
X060351Y076601D01*
X060601Y076851D01*
X060601Y077351D01*
X060351Y077601D01*
X060601Y077851D01*
X060601Y078351D01*
X060351Y078601D01*
X060601Y078851D01*
X060601Y079351D01*
X060351Y079601D01*
X060601Y079851D01*
X060601Y080351D01*
X060351Y080601D01*
X060601Y080851D01*
X060601Y081351D01*
X060351Y081601D01*
X060601Y081851D01*
X060601Y082351D01*
X060351Y082601D01*
X059851Y082601D01*
X059601Y082351D01*
X059601Y081851D01*
X059851Y081601D01*
X059601Y081351D01*
X059601Y080851D01*
X059851Y080601D01*
X059601Y080351D01*
X059601Y079851D01*
X059851Y079601D01*
X059601Y079351D01*
X059601Y078851D01*
X059851Y078601D01*
X059601Y078351D01*
X059601Y077851D01*
X059851Y077601D01*
X059601Y077351D01*
X059601Y076851D01*
X059851Y076601D01*
X059601Y076351D01*
X059601Y075851D01*
X059851Y075601D01*
X059601Y075351D01*
X059601Y074851D01*
X059851Y074601D01*
X059601Y074351D01*
X059601Y073851D01*
X059851Y073601D01*
X059601Y073351D01*
X059601Y072851D01*
X061628Y072361D02*
X061628Y074841D01*
X062573Y074841D01*
X062573Y072361D01*
X061628Y072361D01*
X061628Y064841D02*
X062573Y064841D01*
X062573Y062361D01*
X061628Y062361D01*
X061628Y064841D01*
X069601Y072851D02*
X069851Y072601D01*
X070351Y072601D01*
X070601Y072851D01*
X070601Y073351D01*
X070351Y073601D01*
X070601Y073851D01*
X070601Y074351D01*
X070351Y074601D01*
X070601Y074851D01*
X070601Y075351D01*
X070351Y075601D01*
X070601Y075851D01*
X070601Y076351D01*
X070351Y076601D01*
X070601Y076851D01*
X070601Y077351D01*
X070351Y077601D01*
X070601Y077851D01*
X070601Y078351D01*
X070351Y078601D01*
X070601Y078851D01*
X070601Y079351D01*
X070351Y079601D01*
X070601Y079851D01*
X070601Y080351D01*
X070351Y080601D01*
X070601Y080851D01*
X070601Y081351D01*
X070351Y081601D01*
X070601Y081851D01*
X070601Y082351D01*
X070351Y082601D01*
X069851Y082601D01*
X069601Y082351D01*
X069601Y081851D01*
X069851Y081601D01*
X069601Y081351D01*
X069601Y080851D01*
X069851Y080601D01*
X069601Y080351D01*
X069601Y079851D01*
X069851Y079601D01*
X069601Y079351D01*
X069601Y078851D01*
X069851Y078601D01*
X069601Y078351D01*
X069601Y077851D01*
X069851Y077601D01*
X069601Y077351D01*
X069601Y076851D01*
X069851Y076601D01*
X069601Y076351D01*
X069601Y075851D01*
X069851Y075601D01*
X069601Y075351D01*
X069601Y074851D01*
X069851Y074601D01*
X069601Y074351D01*
X069601Y073851D01*
X069851Y073601D01*
X069601Y073351D01*
X069601Y072851D01*
X071628Y072361D02*
X071628Y074841D01*
X072573Y074841D01*
X072573Y072361D01*
X071628Y072361D01*
X071628Y064841D02*
X072573Y064841D01*
X072573Y062361D01*
X071628Y062361D01*
X071628Y064841D01*
X079601Y072851D02*
X079601Y073351D01*
X079851Y073601D01*
X079601Y073851D01*
X079601Y074351D01*
X079851Y074601D01*
X079601Y074851D01*
X079601Y075351D01*
X079851Y075601D01*
X079601Y075851D01*
X079601Y076351D01*
X079851Y076601D01*
X079601Y076851D01*
X079601Y077351D01*
X079851Y077601D01*
X079601Y077851D01*
X079601Y078351D01*
X079851Y078601D01*
X079601Y078851D01*
X079601Y079351D01*
X079851Y079601D01*
X079601Y079851D01*
X079601Y080351D01*
X079851Y080601D01*
X079601Y080851D01*
X079601Y081351D01*
X079851Y081601D01*
X079601Y081851D01*
X079601Y082351D01*
X079851Y082601D01*
X080351Y082601D01*
X080601Y082351D01*
X080601Y081851D01*
X080351Y081601D01*
X080601Y081351D01*
X080601Y080851D01*
X080351Y080601D01*
X080601Y080351D01*
X080601Y079851D01*
X080351Y079601D01*
X080601Y079351D01*
X080601Y078851D01*
X080351Y078601D01*
X080601Y078351D01*
X080601Y077851D01*
X080351Y077601D01*
X080601Y077351D01*
X080601Y076851D01*
X080351Y076601D01*
X080601Y076351D01*
X080601Y075851D01*
X080351Y075601D01*
X080601Y075351D01*
X080601Y074851D01*
X080351Y074601D01*
X080601Y074351D01*
X080601Y073851D01*
X080351Y073601D01*
X080601Y073351D01*
X080601Y072851D01*
X080351Y072601D01*
X079851Y072601D01*
X079601Y072851D01*
X081628Y072361D02*
X081628Y074841D01*
X082573Y074841D01*
X082573Y072361D01*
X081628Y072361D01*
X087601Y072851D02*
X087851Y072601D01*
X088351Y072601D01*
X088601Y072851D01*
X088601Y073351D01*
X088351Y073601D01*
X088601Y073851D01*
X088601Y074351D01*
X088351Y074601D01*
X088601Y074851D01*
X088601Y075351D01*
X088351Y075601D01*
X088601Y075851D01*
X088601Y076351D01*
X088351Y076601D01*
X088601Y076851D01*
X088601Y077351D01*
X088351Y077601D01*
X088601Y077851D01*
X088601Y078351D01*
X088351Y078601D01*
X088601Y078851D01*
X088601Y079351D01*
X088351Y079601D01*
X088601Y079851D01*
X088601Y080351D01*
X088351Y080601D01*
X088601Y080851D01*
X088601Y081351D01*
X088351Y081601D01*
X088601Y081851D01*
X088601Y082351D01*
X088351Y082601D01*
X087851Y082601D01*
X087601Y082351D01*
X087601Y081851D01*
X087851Y081601D01*
X087601Y081351D01*
X087601Y080851D01*
X087851Y080601D01*
X087601Y080351D01*
X087601Y079851D01*
X087851Y079601D01*
X087601Y079351D01*
X087601Y078851D01*
X087851Y078601D01*
X087601Y078351D01*
X087601Y077851D01*
X087851Y077601D01*
X087601Y077351D01*
X087601Y076851D01*
X087851Y076601D01*
X087601Y076351D01*
X087601Y075851D01*
X087851Y075601D01*
X087601Y075351D01*
X087601Y074851D01*
X087851Y074601D01*
X087601Y074351D01*
X087601Y073851D01*
X087851Y073601D01*
X087601Y073351D01*
X087601Y072851D01*
X088628Y071861D02*
X088628Y074341D01*
X089573Y074341D01*
X089573Y071861D01*
X088628Y071861D01*
X092601Y072851D02*
X092851Y072601D01*
X093351Y072601D01*
X093601Y072851D01*
X093601Y073351D01*
X093351Y073601D01*
X093601Y073851D01*
X093601Y074351D01*
X093351Y074601D01*
X093601Y074851D01*
X093601Y075351D01*
X093351Y075601D01*
X093601Y075851D01*
X093601Y076351D01*
X093351Y076601D01*
X093601Y076851D01*
X093601Y077351D01*
X093351Y077601D01*
X093601Y077851D01*
X093601Y078351D01*
X093351Y078601D01*
X093601Y078851D01*
X093601Y079351D01*
X093351Y079601D01*
X093601Y079851D01*
X093601Y080351D01*
X093351Y080601D01*
X093601Y080851D01*
X093601Y081351D01*
X093351Y081601D01*
X093601Y081851D01*
X093601Y082351D01*
X093351Y082601D01*
X092851Y082601D01*
X092601Y082351D01*
X092601Y081851D01*
X092851Y081601D01*
X092601Y081351D01*
X092601Y080851D01*
X092851Y080601D01*
X092601Y080351D01*
X092601Y079851D01*
X092851Y079601D01*
X092601Y079351D01*
X092601Y078851D01*
X092851Y078601D01*
X092601Y078351D01*
X092601Y077851D01*
X092851Y077601D01*
X092601Y077351D01*
X092601Y076851D01*
X092851Y076601D01*
X092601Y076351D01*
X092601Y075851D01*
X092851Y075601D01*
X092601Y075351D01*
X092601Y074851D01*
X092851Y074601D01*
X092601Y074351D01*
X092601Y073851D01*
X092851Y073601D01*
X092601Y073351D01*
X092601Y072851D01*
X090573Y064841D02*
X089628Y064841D01*
X089628Y062361D01*
X090573Y062361D01*
X090573Y064841D01*
X082573Y064841D02*
X082573Y062361D01*
X081628Y062361D01*
X081628Y064841D01*
X082573Y064841D01*
X082573Y054841D02*
X081628Y054841D01*
X081628Y052361D01*
X082573Y052361D01*
X082573Y054841D01*
X089628Y054841D02*
X089628Y052361D01*
X090573Y052361D01*
X090573Y054841D01*
X089628Y054841D01*
X090628Y048341D02*
X091573Y048341D01*
X091573Y045861D01*
X090628Y045861D01*
X090628Y048341D01*
X084073Y047341D02*
X084073Y044861D01*
X083128Y044861D01*
X083128Y047341D01*
X084073Y047341D01*
X082573Y038841D02*
X081628Y038841D01*
X081628Y036361D01*
X082573Y036361D01*
X082573Y038841D01*
X089628Y038841D02*
X089628Y036361D01*
X090573Y036361D01*
X090573Y038841D01*
X089628Y038841D01*
X089628Y028841D02*
X090573Y028841D01*
X090573Y026361D01*
X089628Y026361D01*
X089628Y028841D01*
X082573Y028841D02*
X082573Y026361D01*
X081628Y026361D01*
X081628Y028841D01*
X082573Y028841D01*
X072573Y028841D02*
X072573Y026361D01*
X071628Y026361D01*
X071628Y028841D01*
X072573Y028841D01*
X072573Y036361D02*
X071628Y036361D01*
X071628Y038841D01*
X072573Y038841D01*
X072573Y036361D01*
X073128Y044861D02*
X073128Y047341D01*
X074073Y047341D01*
X074073Y044861D01*
X073128Y044861D01*
X072573Y052361D02*
X071628Y052361D01*
X071628Y054841D01*
X072573Y054841D01*
X072573Y052361D01*
X064073Y047341D02*
X064073Y044861D01*
X063128Y044861D01*
X063128Y047341D01*
X064073Y047341D01*
X062573Y052361D02*
X061628Y052361D01*
X061628Y054841D01*
X062573Y054841D01*
X062573Y052361D01*
X054073Y047341D02*
X054073Y044861D01*
X053128Y044861D01*
X053128Y047341D01*
X054073Y047341D01*
X052573Y052361D02*
X051628Y052361D01*
X051628Y054841D01*
X052573Y054841D01*
X052573Y052361D01*
X043573Y047341D02*
X043573Y044861D01*
X042628Y044861D01*
X042628Y047341D01*
X043573Y047341D01*
X042073Y052361D02*
X041128Y052361D01*
X041128Y054841D01*
X042073Y054841D01*
X042073Y052361D01*
X034073Y047341D02*
X034073Y044861D01*
X033128Y044861D01*
X033128Y047341D01*
X034073Y047341D01*
X032573Y052361D02*
X031628Y052361D01*
X031628Y054841D01*
X032573Y054841D01*
X032573Y052361D01*
X024073Y047341D02*
X024073Y044861D01*
X023128Y044861D01*
X023128Y047341D01*
X024073Y047341D01*
X022573Y052361D02*
X021628Y052361D01*
X021628Y054841D01*
X022573Y054841D01*
X022573Y052361D01*
X022573Y038841D02*
X021628Y038841D01*
X021628Y036361D01*
X022573Y036361D01*
X022573Y038841D01*
X031628Y038841D02*
X031628Y036361D01*
X032573Y036361D01*
X032573Y038841D01*
X031628Y038841D01*
X041128Y038841D02*
X041128Y036361D01*
X042073Y036361D01*
X042073Y038841D01*
X041128Y038841D01*
X041128Y028841D02*
X042073Y028841D01*
X042073Y026361D01*
X041128Y026361D01*
X041128Y028841D01*
X032573Y028841D02*
X032573Y026361D01*
X031628Y026361D01*
X031628Y028841D01*
X032573Y028841D01*
X032573Y018841D02*
X031628Y018841D01*
X031628Y016361D01*
X032573Y016361D01*
X032573Y018841D01*
X041128Y018841D02*
X041128Y016361D01*
X042073Y016361D01*
X042073Y018841D01*
X041128Y018841D01*
X041128Y008841D02*
X042073Y008841D01*
X042073Y006361D01*
X041128Y006361D01*
X041128Y008841D01*
X032573Y008841D02*
X032573Y006361D01*
X031628Y006361D01*
X031628Y008841D01*
X032573Y008841D01*
X051628Y008841D02*
X051628Y006361D01*
X052573Y006361D01*
X052573Y008841D01*
X051628Y008841D01*
X051628Y016361D02*
X051628Y018841D01*
X052573Y018841D01*
X052573Y016361D01*
X051628Y016361D01*
X051628Y026361D02*
X051628Y028841D01*
X052573Y028841D01*
X052573Y026361D01*
X051628Y026361D01*
X051628Y036361D02*
X051628Y038841D01*
X052573Y038841D01*
X052573Y036361D01*
X051628Y036361D01*
X061628Y036361D02*
X061628Y038841D01*
X062573Y038841D01*
X062573Y036361D01*
X061628Y036361D01*
X061628Y028841D02*
X062573Y028841D01*
X062573Y026361D01*
X061628Y026361D01*
X061628Y028841D01*
X061628Y018841D02*
X062573Y018841D01*
X062573Y016361D01*
X061628Y016361D01*
X061628Y018841D01*
X061628Y008841D02*
X062573Y008841D01*
X062573Y006361D01*
X061628Y006361D01*
X061628Y008841D01*
X071628Y008841D02*
X071628Y006361D01*
X072573Y006361D01*
X072573Y008841D01*
X071628Y008841D01*
X071628Y016361D02*
X071628Y018841D01*
X072573Y018841D01*
X072573Y016361D01*
X071628Y016361D01*
X081628Y016361D02*
X081628Y018841D01*
X082573Y018841D01*
X082573Y016361D01*
X081628Y016361D01*
X081628Y008841D02*
X082573Y008841D01*
X082573Y006361D01*
X081628Y006361D01*
X081628Y008841D01*
X089628Y008841D02*
X089628Y006361D01*
X090573Y006361D01*
X090573Y008841D01*
X089628Y008841D01*
X089628Y016361D02*
X089628Y018841D01*
X090573Y018841D01*
X090573Y016361D01*
X089628Y016361D01*
X086341Y080628D02*
X083861Y080628D01*
X083861Y081573D01*
X086341Y081573D01*
X086341Y080628D01*
X086341Y081628D02*
X083861Y081628D01*
X083861Y082573D01*
X086341Y082573D01*
X086341Y081628D01*
X089628Y082361D02*
X089628Y084841D01*
X090573Y084841D01*
X090573Y082361D01*
X089628Y082361D01*
X089073Y086861D02*
X088128Y086861D01*
X088128Y089341D01*
X089073Y089341D01*
X089073Y086861D01*
X076341Y082573D02*
X076341Y081628D01*
X073861Y081628D01*
X073861Y082573D01*
X076341Y082573D01*
X076341Y081573D02*
X076341Y080628D01*
X073861Y080628D01*
X073861Y081573D01*
X076341Y081573D01*
X066341Y081573D02*
X066341Y080628D01*
X063861Y080628D01*
X063861Y081573D01*
X066341Y081573D01*
X066341Y081628D02*
X063861Y081628D01*
X063861Y082573D01*
X066341Y082573D01*
X066341Y081628D01*
X056341Y081628D02*
X053861Y081628D01*
X053861Y082573D01*
X056341Y082573D01*
X056341Y081628D01*
X056341Y081573D02*
X056341Y080628D01*
X053861Y080628D01*
X053861Y081573D01*
X056341Y081573D01*
X045841Y081573D02*
X045841Y080628D01*
X043361Y080628D01*
X043361Y081573D01*
X045841Y081573D01*
X045841Y081628D02*
X043361Y081628D01*
X043361Y082573D01*
X045841Y082573D01*
X045841Y081628D01*
X036341Y081628D02*
X033861Y081628D01*
X033861Y082573D01*
X036341Y082573D01*
X036341Y081628D01*
X036341Y081573D02*
X036341Y080628D01*
X033861Y080628D01*
X033861Y081573D01*
X036341Y081573D01*
X026341Y081573D02*
X026341Y080628D01*
X023861Y080628D01*
X023861Y081573D01*
X026341Y081573D01*
X026341Y081628D02*
X023861Y081628D01*
X023861Y082573D01*
X026341Y082573D01*
X026341Y081628D01*
X016841Y081628D02*
X014361Y081628D01*
X014361Y082573D01*
X016841Y082573D01*
X016841Y081628D01*
X016841Y081573D02*
X016841Y080628D01*
X014361Y080628D01*
X014361Y081573D01*
X016841Y081573D01*
X008341Y081573D02*
X008341Y080628D01*
X005861Y080628D01*
X005861Y081573D01*
X008341Y081573D01*
X008341Y081628D02*
X005861Y081628D01*
X005861Y082573D01*
X008341Y082573D01*
X008341Y081628D01*
M02*
