G75*
G70*
%OFA0B0*%
%FSLAX24Y24*%
%IPPOS*%
%LPD*%
%AMOC8*
5,1,8,0,0,1.08239X$1,22.5*
%
%ADD10C,0.0160*%
%ADD11C,0.0060*%
%ADD12C,0.1300*%
%ADD13C,0.0740*%
%ADD14C,0.0860*%
%ADD15C,0.0700*%
%ADD16C,0.0500*%
%ADD17C,0.0240*%
D10*
X006293Y001181D02*
X007521Y003022D01*
X006293Y003022D02*
X007521Y001181D01*
X003022Y006681D02*
X002715Y006681D01*
X002102Y007295D01*
X001181Y007295D01*
X002102Y007295D02*
X002715Y007908D01*
X003022Y007908D01*
D11*
X048681Y052675D02*
X048681Y053102D01*
X048788Y053320D02*
X049001Y053320D01*
X049108Y053427D01*
X049108Y053640D01*
X049001Y053747D01*
X048894Y053747D01*
X048894Y053320D01*
X048788Y053320D02*
X048681Y053427D01*
X048681Y053640D01*
X048788Y053964D02*
X049001Y053964D01*
X049108Y054071D01*
X049108Y054391D01*
X049321Y054391D02*
X048681Y054391D01*
X048681Y054071D01*
X048788Y053964D01*
X048574Y054609D02*
X048574Y055036D01*
X048681Y055254D02*
X048681Y055574D01*
X048788Y055681D01*
X048894Y055681D01*
X049001Y055574D01*
X049001Y055254D01*
X049001Y055574D02*
X049108Y055681D01*
X049215Y055681D01*
X049321Y055574D01*
X049321Y055254D01*
X048681Y055254D01*
X048788Y055898D02*
X048681Y056005D01*
X048681Y056218D01*
X048788Y056325D01*
X049001Y056325D01*
X049108Y056218D01*
X049108Y056005D01*
X049001Y055898D01*
X048788Y055898D01*
X048788Y056543D02*
X048894Y056649D01*
X048894Y056970D01*
X049001Y056970D02*
X048681Y056970D01*
X048681Y056649D01*
X048788Y056543D01*
X049108Y056649D02*
X049108Y056863D01*
X049001Y056970D01*
X048894Y057187D02*
X049108Y057401D01*
X049108Y057507D01*
X049001Y057724D02*
X049108Y057831D01*
X049108Y058151D01*
X049321Y058151D02*
X048681Y058151D01*
X048681Y057831D01*
X048788Y057724D01*
X049001Y057724D01*
X049108Y057187D02*
X048681Y057187D01*
X048574Y058369D02*
X048574Y058796D01*
X048681Y059227D02*
X049108Y059440D01*
X049215Y059658D02*
X049321Y059765D01*
X049321Y059978D01*
X049215Y060085D01*
X048788Y059658D01*
X048681Y059765D01*
X048681Y059978D01*
X048788Y060085D01*
X049215Y060085D01*
X049001Y060302D02*
X049001Y060729D01*
X048788Y060947D02*
X049215Y061374D01*
X048788Y061374D01*
X048681Y061267D01*
X048681Y061054D01*
X048788Y060947D01*
X049215Y060947D01*
X049321Y061054D01*
X049321Y061267D01*
X049215Y061374D01*
X049001Y061591D02*
X049001Y062018D01*
X049108Y062236D02*
X049321Y062449D01*
X048681Y062449D01*
X048681Y062236D02*
X048681Y062663D01*
X049931Y062690D02*
X049931Y062263D01*
X049931Y062477D02*
X050571Y062477D01*
X050358Y062263D01*
X050358Y062046D02*
X049931Y061619D01*
X050038Y061401D02*
X049931Y061294D01*
X049931Y061081D01*
X050038Y060974D01*
X050465Y061401D01*
X050038Y061401D01*
X050358Y061619D02*
X049931Y062046D01*
X050465Y061401D02*
X050571Y061294D01*
X050571Y061081D01*
X050465Y060974D01*
X050038Y060974D01*
X049931Y060757D02*
X049931Y060330D01*
X049931Y060543D02*
X050571Y060543D01*
X050358Y060330D01*
X050358Y060112D02*
X049931Y059685D01*
X050038Y059468D02*
X049931Y059361D01*
X049931Y059147D01*
X050038Y059041D01*
X050465Y059468D01*
X050038Y059468D01*
X050358Y059685D02*
X049931Y060112D01*
X050465Y059468D02*
X050571Y059361D01*
X050571Y059147D01*
X050465Y059041D01*
X050038Y059041D01*
X049931Y058823D02*
X049931Y058396D01*
X049931Y058609D02*
X050571Y058609D01*
X050358Y058396D01*
X050251Y058178D02*
X050251Y057751D01*
X050251Y057534D02*
X050144Y057534D01*
X050144Y057107D01*
X050038Y057107D02*
X050251Y057107D01*
X050358Y057214D01*
X050358Y057427D01*
X050251Y057534D01*
X049931Y057427D02*
X049931Y057214D01*
X050038Y057107D01*
X050038Y056889D02*
X050251Y056889D01*
X050358Y056783D01*
X050358Y056462D01*
X050571Y056462D02*
X049931Y056462D01*
X049931Y056783D01*
X050038Y056889D01*
X049931Y056245D02*
X050358Y056245D01*
X050358Y055818D02*
X050038Y055818D01*
X049931Y055925D01*
X049931Y056245D01*
X050038Y055600D02*
X049931Y055494D01*
X049931Y055280D01*
X050038Y055173D01*
X050465Y055173D01*
X050571Y055280D01*
X050571Y055494D01*
X050465Y055600D01*
X050251Y054956D02*
X050251Y054529D01*
X050038Y054311D02*
X050465Y054311D01*
X050571Y054205D01*
X050571Y053884D01*
X049931Y053884D01*
X049931Y054205D01*
X050038Y054311D01*
X049931Y053667D02*
X049931Y053240D01*
X050571Y053240D01*
X050571Y053667D01*
X050251Y053453D02*
X050251Y053240D01*
X049931Y053022D02*
X049931Y052595D01*
X050571Y052595D01*
X049321Y052675D02*
X048681Y052675D01*
X049108Y059013D02*
X048681Y059227D01*
X048788Y059658D02*
X049215Y059658D01*
X050038Y062908D02*
X050465Y063335D01*
X050038Y063335D01*
X049931Y063228D01*
X049931Y063014D01*
X050038Y062908D01*
X050465Y062908D01*
X050571Y063014D01*
X050571Y063228D01*
X050465Y063335D01*
X050251Y063552D02*
X050251Y063979D01*
X050144Y064197D02*
X050144Y064517D01*
X050251Y064624D01*
X050465Y064624D01*
X050571Y064517D01*
X050571Y064197D01*
X049931Y064197D01*
X050144Y064410D02*
X049931Y064624D01*
X050038Y064841D02*
X050251Y064841D01*
X050358Y064948D01*
X050358Y065161D01*
X050251Y065268D01*
X050144Y065268D01*
X050144Y064841D01*
X050038Y064841D02*
X049931Y064948D01*
X049931Y065161D01*
X050038Y065486D02*
X050251Y065486D01*
X050358Y065593D01*
X050358Y065913D01*
X050571Y065913D02*
X049931Y065913D01*
X049931Y065593D01*
X050038Y065486D01*
X049321Y065659D02*
X049215Y065553D01*
X049321Y065659D02*
X049321Y065873D01*
X049215Y065980D01*
X049108Y065980D01*
X048681Y065553D01*
X048681Y065980D01*
X048788Y066197D02*
X049215Y066624D01*
X048788Y066624D01*
X048681Y066517D01*
X048681Y066304D01*
X048788Y066197D01*
X049215Y066197D01*
X049321Y066304D01*
X049321Y066517D01*
X049215Y066624D01*
X049108Y066842D02*
X049321Y067055D01*
X048681Y067055D01*
X048681Y066842D02*
X048681Y067269D01*
X048681Y067486D02*
X048681Y067913D01*
X048681Y067700D02*
X049321Y067700D01*
X049108Y067486D01*
X048788Y065337D02*
X048681Y065337D01*
X048681Y065230D01*
X048788Y065230D01*
X048788Y065337D01*
X048788Y065013D02*
X049215Y065013D01*
X049321Y064906D01*
X049321Y064692D01*
X049215Y064586D01*
X049108Y064586D01*
X049001Y064692D01*
X049001Y065013D01*
X048788Y065013D02*
X048681Y064906D01*
X048681Y064692D01*
X048788Y064586D01*
X048788Y064368D02*
X048681Y064261D01*
X048681Y064048D01*
X048788Y063941D01*
X049215Y064368D01*
X048788Y064368D01*
X049215Y064368D02*
X049321Y064261D01*
X049321Y064048D01*
X049215Y063941D01*
X048788Y063941D01*
X049606Y083131D02*
X049606Y083771D01*
X049926Y083451D01*
X049499Y083451D01*
X050144Y083131D02*
X050571Y083771D01*
X050144Y083771D02*
X050571Y083131D01*
X050571Y086131D02*
X050144Y086131D01*
X049926Y086238D02*
X049820Y086131D01*
X049606Y086131D01*
X049499Y086238D01*
X049499Y086451D01*
X049606Y086558D01*
X049713Y086558D01*
X049926Y086451D01*
X049926Y086771D01*
X049499Y086771D01*
X050571Y086771D02*
X050571Y086131D01*
X044571Y086131D02*
X044144Y086131D01*
X043926Y086451D02*
X043499Y086451D01*
X043606Y086131D02*
X043606Y086771D01*
X043926Y086451D01*
X044571Y086771D02*
X044571Y086131D01*
X040571Y083771D02*
X040144Y083131D01*
X039926Y083238D02*
X039820Y083131D01*
X039606Y083131D01*
X039499Y083238D01*
X039499Y083344D01*
X039606Y083451D01*
X039713Y083451D01*
X039606Y083451D02*
X039499Y083558D01*
X039499Y083665D01*
X039606Y083771D01*
X039820Y083771D01*
X039926Y083665D01*
X040144Y083771D02*
X040571Y083131D01*
X034571Y086131D02*
X034144Y086131D01*
X033926Y086238D02*
X033820Y086131D01*
X033606Y086131D01*
X033499Y086238D01*
X033499Y086344D01*
X033606Y086451D01*
X033713Y086451D01*
X033606Y086451D02*
X033499Y086558D01*
X033499Y086665D01*
X033606Y086771D01*
X033820Y086771D01*
X033926Y086665D01*
X034571Y086771D02*
X034571Y086131D01*
X030571Y083771D02*
X030144Y083131D01*
X029926Y083131D02*
X029499Y083558D01*
X029499Y083665D01*
X029606Y083771D01*
X029820Y083771D01*
X029926Y083665D01*
X030144Y083771D02*
X030571Y083131D01*
X029926Y083131D02*
X029499Y083131D01*
X024571Y086131D02*
X024144Y086131D01*
X023926Y086131D02*
X023499Y086558D01*
X023499Y086665D01*
X023606Y086771D01*
X023820Y086771D01*
X023926Y086665D01*
X023926Y086131D02*
X023499Y086131D01*
X024571Y086131D02*
X024571Y086771D01*
X020571Y083771D02*
X020144Y083131D01*
X019926Y083131D02*
X019499Y083131D01*
X019713Y083131D02*
X019713Y083771D01*
X019926Y083558D01*
X020144Y083771D02*
X020571Y083131D01*
X014571Y086131D02*
X014144Y086131D01*
X013926Y086131D02*
X013499Y086131D01*
X013713Y086131D02*
X013713Y086771D01*
X013926Y086558D01*
X014571Y086771D02*
X014571Y086131D01*
X010571Y083771D02*
X010144Y083131D01*
X009926Y083238D02*
X009499Y083665D01*
X009499Y083238D01*
X009606Y083131D01*
X009820Y083131D01*
X009926Y083238D01*
X009926Y083665D01*
X009820Y083771D01*
X009606Y083771D01*
X009499Y083665D01*
X010144Y083771D02*
X010571Y083131D01*
X004571Y086131D02*
X004144Y086131D01*
X003926Y086238D02*
X003499Y086665D01*
X003499Y086238D01*
X003606Y086131D01*
X003820Y086131D01*
X003926Y086238D01*
X003926Y086665D01*
X003820Y086771D01*
X003606Y086771D01*
X003499Y086665D01*
X004571Y086771D02*
X004571Y086131D01*
X059499Y086238D02*
X059499Y086344D01*
X059606Y086451D01*
X059926Y086451D01*
X059926Y086238D01*
X059820Y086131D01*
X059606Y086131D01*
X059499Y086238D01*
X059713Y086665D02*
X059499Y086771D01*
X059713Y086665D02*
X059926Y086451D01*
X060144Y086131D02*
X060571Y086131D01*
X060571Y086771D01*
X060571Y083771D02*
X060144Y083131D01*
X059926Y083238D02*
X059820Y083131D01*
X059606Y083131D01*
X059499Y083238D01*
X059499Y083451D01*
X059606Y083558D01*
X059713Y083558D01*
X059926Y083451D01*
X059926Y083771D01*
X059499Y083771D01*
X060144Y083771D02*
X060571Y083131D01*
X069499Y083238D02*
X069499Y083344D01*
X069606Y083451D01*
X069926Y083451D01*
X069926Y083238D01*
X069820Y083131D01*
X069606Y083131D01*
X069499Y083238D01*
X069713Y083665D02*
X069926Y083451D01*
X069713Y083665D02*
X069499Y083771D01*
X070144Y083771D02*
X070571Y083131D01*
X070144Y083131D02*
X070571Y083771D01*
X070571Y086131D02*
X070144Y086131D01*
X069926Y086131D02*
X069926Y086238D01*
X069499Y086665D01*
X069499Y086771D01*
X069926Y086771D01*
X070571Y086771D02*
X070571Y086131D01*
X079499Y086238D02*
X079606Y086131D01*
X079820Y086131D01*
X079926Y086238D01*
X079926Y086344D01*
X079820Y086451D01*
X079606Y086451D01*
X079499Y086344D01*
X079499Y086238D01*
X079606Y086451D02*
X079499Y086558D01*
X079499Y086665D01*
X079606Y086771D01*
X079820Y086771D01*
X079926Y086665D01*
X079926Y086558D01*
X079820Y086451D01*
X080144Y086131D02*
X080571Y086131D01*
X080571Y086771D01*
X080571Y083771D02*
X080144Y083131D01*
X079926Y083131D02*
X079926Y083238D01*
X079499Y083665D01*
X079499Y083771D01*
X079926Y083771D01*
X080144Y083771D02*
X080571Y083131D01*
X087499Y083238D02*
X087606Y083131D01*
X087820Y083131D01*
X087926Y083238D01*
X087926Y083344D01*
X087820Y083451D01*
X087606Y083451D01*
X087499Y083344D01*
X087499Y083238D01*
X087606Y083451D02*
X087499Y083558D01*
X087499Y083665D01*
X087606Y083771D01*
X087820Y083771D01*
X087926Y083665D01*
X087926Y083558D01*
X087820Y083451D01*
X088144Y083131D02*
X088571Y083771D01*
X088144Y083771D02*
X088571Y083131D01*
X091856Y087631D02*
X091749Y087738D01*
X091749Y088165D01*
X091856Y088271D01*
X092070Y088271D01*
X092176Y088165D01*
X092176Y088058D01*
X092070Y087951D01*
X091749Y087951D01*
X091856Y087631D02*
X092070Y087631D01*
X092176Y087738D01*
X092394Y087631D02*
X092821Y087631D01*
X092821Y088271D01*
D12*
X090101Y088101D03*
X090101Y090101D03*
X082101Y090101D03*
X080101Y088101D03*
X082101Y080101D03*
X090101Y080101D03*
X090101Y070101D03*
X082101Y070101D03*
X082101Y060101D03*
X090101Y060101D03*
X090101Y050101D03*
X090101Y044101D03*
X082101Y044101D03*
X082101Y050101D03*
X072101Y050101D03*
X072101Y044101D03*
X072101Y034101D03*
X082101Y034101D03*
X090101Y034101D03*
X090101Y024101D03*
X082101Y024101D03*
X072101Y024101D03*
X072101Y014101D03*
X082101Y014101D03*
X090101Y014101D03*
X090101Y004101D03*
X082101Y004101D03*
X072101Y004101D03*
X062101Y004101D03*
X062101Y014101D03*
X052101Y014101D03*
X052101Y004101D03*
X041601Y004101D03*
X032101Y004101D03*
X032101Y014101D03*
X041601Y014101D03*
X041601Y024101D03*
X032101Y024101D03*
X032101Y034101D03*
X041601Y034101D03*
X041601Y044101D03*
X041601Y050101D03*
X032101Y050101D03*
X032101Y044101D03*
X022101Y044101D03*
X022101Y050101D03*
X022101Y060101D03*
X022101Y070101D03*
X032101Y070101D03*
X041601Y070101D03*
X041601Y060101D03*
X032101Y060101D03*
X032101Y080101D03*
X034101Y088101D03*
X032101Y090101D03*
X024101Y088101D03*
X022101Y090101D03*
X014101Y088101D03*
X012101Y090101D03*
X004101Y090101D03*
X004101Y088101D03*
X004101Y080101D03*
X012101Y080101D03*
X022101Y080101D03*
X012101Y070101D03*
X004101Y070101D03*
X004101Y060101D03*
X012101Y060101D03*
X012101Y050101D03*
X012101Y044101D03*
X004101Y044101D03*
X004101Y050101D03*
X004101Y034101D03*
X012101Y034101D03*
X012101Y024101D03*
X004101Y024101D03*
X004101Y014101D03*
X012101Y014101D03*
X012101Y004101D03*
X004101Y004101D03*
X022101Y004101D03*
X022101Y014101D03*
X022101Y024101D03*
X022101Y034101D03*
X052101Y034101D03*
X062101Y034101D03*
X062101Y024101D03*
X052101Y024101D03*
X052101Y044101D03*
X052101Y050101D03*
X062101Y050101D03*
X062101Y044101D03*
X062101Y060101D03*
X062101Y070101D03*
X052101Y070101D03*
X052101Y060101D03*
X052101Y080101D03*
X050101Y088101D03*
X052101Y090101D03*
X060101Y088101D03*
X062101Y090101D03*
X070101Y088101D03*
X072101Y090101D03*
X072101Y080101D03*
X072101Y070101D03*
X072101Y060101D03*
X062101Y080101D03*
X044101Y088101D03*
X041601Y090101D03*
X041601Y080101D03*
D13*
X042601Y081101D03*
X042601Y082101D03*
X040101Y082101D03*
X040101Y081101D03*
X040101Y080101D03*
X040101Y079101D03*
X040101Y078101D03*
X040101Y077101D03*
X040101Y076101D03*
X040101Y075101D03*
X040101Y074101D03*
X040101Y073101D03*
X041601Y071601D03*
X041601Y075601D03*
X037101Y081101D03*
X037101Y082101D03*
X033101Y082101D03*
X033101Y081101D03*
X030101Y081101D03*
X030101Y082101D03*
X030101Y080101D03*
X030101Y079101D03*
X030101Y078101D03*
X030101Y077101D03*
X030101Y076101D03*
X030101Y075101D03*
X030101Y074101D03*
X030101Y073101D03*
X032101Y071601D03*
X032101Y075601D03*
X027101Y081101D03*
X027101Y082101D03*
X023101Y082101D03*
X023101Y081101D03*
X020101Y081101D03*
X020101Y082101D03*
X020101Y080101D03*
X020101Y079101D03*
X020101Y078101D03*
X020101Y077101D03*
X020101Y076101D03*
X020101Y075101D03*
X020101Y074101D03*
X020101Y073101D03*
X022101Y071601D03*
X022101Y075601D03*
X017601Y081101D03*
X017601Y082101D03*
X013601Y082101D03*
X013601Y081101D03*
X010101Y081101D03*
X010101Y082101D03*
X009101Y082101D03*
X009101Y081101D03*
X010101Y080101D03*
X010101Y079101D03*
X010101Y078101D03*
X010101Y077101D03*
X010101Y076101D03*
X010101Y075101D03*
X010101Y074101D03*
X010101Y073101D03*
X012101Y071601D03*
X012101Y075601D03*
X005101Y081101D03*
X005101Y082101D03*
X004101Y075601D03*
X004101Y071601D03*
X004101Y065601D03*
X004101Y061601D03*
X004101Y055601D03*
X004101Y051601D03*
X005601Y048101D03*
X005601Y044101D03*
X004101Y039601D03*
X004101Y035601D03*
X004101Y029601D03*
X004101Y025601D03*
X004101Y019601D03*
X004101Y015601D03*
X004101Y009601D03*
X004101Y005601D03*
X012101Y005601D03*
X012101Y009601D03*
X012101Y015601D03*
X012101Y019601D03*
X012101Y025601D03*
X012101Y029601D03*
X012101Y035601D03*
X012101Y039601D03*
X013601Y044101D03*
X013601Y048101D03*
X012101Y051601D03*
X012101Y055601D03*
X012101Y061601D03*
X012101Y065601D03*
X022101Y065601D03*
X022101Y061601D03*
X022101Y055601D03*
X022101Y051601D03*
X023601Y048101D03*
X023601Y044101D03*
X022101Y039601D03*
X022101Y035601D03*
X022101Y029601D03*
X022101Y025601D03*
X022101Y019601D03*
X022101Y015601D03*
X022101Y009601D03*
X022101Y005601D03*
X032101Y005601D03*
X032101Y009601D03*
X032101Y015601D03*
X032101Y019601D03*
X032101Y025601D03*
X032101Y029601D03*
X032101Y035601D03*
X032101Y039601D03*
X033601Y044101D03*
X033601Y048101D03*
X032101Y051601D03*
X032101Y055601D03*
X032101Y061601D03*
X032101Y065601D03*
X041601Y065601D03*
X041601Y061601D03*
X041601Y055601D03*
X041601Y051601D03*
X043101Y048101D03*
X043101Y044101D03*
X041601Y039601D03*
X041601Y035601D03*
X041601Y029601D03*
X041601Y025601D03*
X041601Y019601D03*
X041601Y015601D03*
X041601Y009601D03*
X041601Y005601D03*
X052101Y005601D03*
X052101Y009601D03*
X052101Y015601D03*
X052101Y019601D03*
X052101Y025601D03*
X052101Y029601D03*
X052101Y035601D03*
X052101Y039601D03*
X053601Y044101D03*
X053601Y048101D03*
X052101Y051601D03*
X052101Y055601D03*
X052101Y061601D03*
X052101Y065601D03*
X052101Y071601D03*
X050101Y073101D03*
X050101Y074101D03*
X050101Y075101D03*
X050101Y076101D03*
X050101Y077101D03*
X050101Y078101D03*
X050101Y079101D03*
X050101Y080101D03*
X050101Y081101D03*
X050101Y082101D03*
X046601Y082101D03*
X046601Y081101D03*
X052101Y075601D03*
X053101Y081101D03*
X053101Y082101D03*
X057101Y082101D03*
X057101Y081101D03*
X060101Y081101D03*
X060101Y082101D03*
X060101Y080101D03*
X060101Y079101D03*
X060101Y078101D03*
X060101Y077101D03*
X060101Y076101D03*
X060101Y075101D03*
X060101Y074101D03*
X060101Y073101D03*
X062101Y071601D03*
X062101Y075601D03*
X063101Y081101D03*
X063101Y082101D03*
X067101Y082101D03*
X067101Y081101D03*
X070101Y081101D03*
X070101Y082101D03*
X070101Y080101D03*
X070101Y079101D03*
X070101Y078101D03*
X070101Y077101D03*
X070101Y076101D03*
X070101Y075101D03*
X070101Y074101D03*
X070101Y073101D03*
X072101Y071601D03*
X072101Y075601D03*
X073101Y081101D03*
X073101Y082101D03*
X077101Y082101D03*
X077101Y081101D03*
X080101Y081101D03*
X080101Y082101D03*
X080101Y080101D03*
X080101Y079101D03*
X080101Y078101D03*
X080101Y077101D03*
X080101Y076101D03*
X080101Y075101D03*
X080101Y074101D03*
X080101Y073101D03*
X082101Y071601D03*
X082101Y075601D03*
X083101Y081101D03*
X083101Y082101D03*
X087101Y082101D03*
X087101Y081101D03*
X088101Y081101D03*
X088101Y082101D03*
X088101Y080101D03*
X088101Y079101D03*
X088101Y078101D03*
X088101Y077101D03*
X088101Y076101D03*
X088101Y075101D03*
X089101Y075101D03*
X088101Y074101D03*
X088101Y073101D03*
X089101Y071101D03*
X093101Y073101D03*
X093101Y074101D03*
X093101Y075101D03*
X093101Y076101D03*
X093101Y077101D03*
X093101Y078101D03*
X093101Y079101D03*
X093101Y080101D03*
X093101Y081101D03*
X093101Y082101D03*
X090101Y081601D03*
X090101Y085601D03*
X088601Y086101D03*
X088601Y090101D03*
X090101Y065601D03*
X090101Y061601D03*
X090101Y055601D03*
X090101Y051601D03*
X091101Y049101D03*
X091101Y045101D03*
X090101Y039601D03*
X090101Y035601D03*
X090101Y029601D03*
X090101Y025601D03*
X090101Y019601D03*
X090101Y015601D03*
X090101Y009601D03*
X090101Y005601D03*
X082101Y005601D03*
X082101Y009601D03*
X082101Y015601D03*
X082101Y019601D03*
X082101Y025601D03*
X082101Y029601D03*
X082101Y035601D03*
X082101Y039601D03*
X083601Y044101D03*
X083601Y048101D03*
X082101Y051601D03*
X082101Y055601D03*
X082101Y061601D03*
X082101Y065601D03*
X072101Y065601D03*
X072101Y061601D03*
X072101Y055601D03*
X072101Y051601D03*
X073601Y048101D03*
X073601Y044101D03*
X072101Y039601D03*
X072101Y035601D03*
X072101Y029601D03*
X072101Y025601D03*
X072101Y019601D03*
X072101Y015601D03*
X072101Y009601D03*
X072101Y005601D03*
X062101Y005601D03*
X062101Y009601D03*
X062101Y015601D03*
X062101Y019601D03*
X062101Y025601D03*
X062101Y029601D03*
X062101Y035601D03*
X062101Y039601D03*
X063601Y044101D03*
X063601Y048101D03*
X062101Y051601D03*
X062101Y055601D03*
X062101Y061601D03*
X062101Y065601D03*
X051601Y093601D03*
X050601Y093601D03*
X049601Y093601D03*
X048601Y093601D03*
X047601Y093601D03*
X046601Y093601D03*
X045601Y093601D03*
X044601Y093601D03*
X043601Y093601D03*
X042601Y093601D03*
D14*
X041601Y071601D02*
X041601Y070101D01*
X041601Y061601D02*
X041601Y060101D01*
X041601Y051601D02*
X041601Y050101D01*
X041601Y044101D02*
X043101Y044101D01*
X041601Y035601D02*
X041601Y034101D01*
X041601Y025601D02*
X041601Y024101D01*
X041601Y015601D02*
X041601Y014101D01*
X041601Y005601D02*
X041601Y004101D01*
X032101Y004101D02*
X032101Y005601D01*
X032101Y014101D02*
X032101Y015601D01*
X032101Y024101D02*
X032101Y025601D01*
X032101Y034101D02*
X032101Y035601D01*
X032101Y044101D02*
X033601Y044101D01*
X032101Y050101D02*
X032101Y051601D01*
X032101Y060101D02*
X032101Y061601D01*
X032101Y070101D02*
X032101Y071601D01*
X022101Y071601D02*
X022101Y070101D01*
X022101Y061601D02*
X022101Y060101D01*
X022101Y051601D02*
X022101Y050101D01*
X022101Y044101D02*
X023601Y044101D01*
X022101Y035601D02*
X022101Y034101D01*
X022101Y025601D02*
X022101Y024101D01*
X022101Y015601D02*
X022101Y014101D01*
X022101Y005601D02*
X022101Y004101D01*
X012101Y004101D02*
X012101Y005601D01*
X004101Y005601D02*
X004101Y004101D01*
X004101Y014101D02*
X004101Y015601D01*
X012101Y015601D02*
X012101Y014101D01*
X012101Y024101D02*
X012101Y025601D01*
X004101Y025601D02*
X004101Y024101D01*
X004101Y034101D02*
X004101Y035601D01*
X012101Y035601D02*
X012101Y034101D01*
X012101Y044101D02*
X013601Y044101D01*
X012101Y050101D02*
X012101Y051601D01*
X004101Y051601D02*
X004101Y050101D01*
X004101Y044101D02*
X005601Y044101D01*
X004101Y060101D02*
X004101Y061601D01*
X012101Y061601D02*
X012101Y060101D01*
X012101Y070101D02*
X012101Y071601D01*
X004101Y071601D02*
X004101Y070101D01*
X052101Y070101D02*
X052101Y071601D01*
X062101Y071601D02*
X062101Y070101D01*
X062101Y061601D02*
X062101Y060101D01*
X062101Y051601D02*
X062101Y050101D01*
X062101Y044101D02*
X063601Y044101D01*
X072101Y044101D02*
X073601Y044101D01*
X072101Y050101D02*
X072101Y051601D01*
X072101Y060101D02*
X072101Y061601D01*
X072101Y070101D02*
X072101Y071601D01*
X082101Y071601D02*
X082101Y070101D01*
X089101Y071101D02*
X090101Y070101D01*
X090101Y061601D02*
X090101Y060101D01*
X082101Y060101D02*
X082101Y061601D01*
X082101Y051601D02*
X082101Y050101D01*
X082101Y044101D02*
X083601Y044101D01*
X090101Y044101D02*
X091101Y045101D01*
X090101Y050101D02*
X090101Y051601D01*
X090101Y035601D02*
X090101Y034101D01*
X082101Y034101D02*
X082101Y035601D01*
X072101Y035601D02*
X072101Y034101D01*
X072101Y025601D02*
X072101Y024101D01*
X072101Y015601D02*
X072101Y014101D01*
X072101Y005601D02*
X072101Y004101D01*
X082101Y004101D02*
X082101Y005601D01*
X090101Y005601D02*
X090101Y004101D01*
X090101Y014101D02*
X090101Y015601D01*
X082101Y015601D02*
X082101Y014101D01*
X082101Y024101D02*
X082101Y025601D01*
X090101Y025601D02*
X090101Y024101D01*
X062101Y024101D02*
X062101Y025601D01*
X062101Y034101D02*
X062101Y035601D01*
X053601Y044101D02*
X052101Y044101D01*
X052101Y050101D02*
X052101Y051601D01*
X052101Y060101D02*
X052101Y061601D01*
X052101Y035601D02*
X052101Y034101D01*
X052101Y025601D02*
X052101Y024101D01*
X052101Y015601D02*
X052101Y014101D01*
X052101Y005601D02*
X052101Y004101D01*
X062101Y004101D02*
X062101Y005601D01*
X062101Y014101D02*
X062101Y015601D01*
X090101Y080101D02*
X090101Y081601D01*
X090101Y090101D02*
X088601Y090101D01*
D15*
X082101Y090101D02*
X082101Y083101D01*
X083101Y082101D01*
X083101Y081101D02*
X082101Y080101D01*
X073101Y081101D02*
X072101Y080101D01*
X073101Y082101D02*
X072101Y083101D01*
X072101Y090101D01*
X063101Y082101D02*
X062101Y083101D01*
X062101Y090101D01*
X063101Y081101D02*
X062101Y080101D01*
X053101Y081101D02*
X052101Y080101D01*
X053101Y082101D02*
X052101Y083101D01*
X052101Y090101D01*
X042601Y082101D02*
X041601Y083101D01*
X041601Y090101D01*
X042601Y081101D02*
X041601Y080101D01*
X033101Y081101D02*
X032101Y080101D01*
X033101Y082101D02*
X032101Y083101D01*
X032101Y090101D01*
X023101Y082101D02*
X022101Y083101D01*
X022101Y090101D01*
X023101Y081101D02*
X022101Y080101D01*
X013601Y081101D02*
X013101Y081101D01*
X012101Y080101D01*
X013101Y082101D02*
X013601Y082101D01*
X013101Y082101D02*
X012101Y083101D01*
X012101Y090101D01*
X005601Y089101D02*
X005601Y082601D01*
X005101Y082101D01*
X005101Y081101D02*
X004101Y080101D01*
X005601Y089101D02*
X004601Y090101D01*
X004101Y090101D01*
D16*
X001601Y005601D02*
X001601Y002601D01*
X002601Y001601D02*
X005101Y001601D01*
X004601Y001101D01*
X005101Y001601D02*
X004601Y002101D01*
X002101Y005101D02*
X001601Y005601D01*
X001101Y005101D01*
X004101Y009601D02*
X009601Y015101D01*
X009601Y073101D01*
X010101Y073101D01*
X010101Y074101D02*
X009601Y074101D01*
X008851Y073351D01*
X008851Y024351D01*
X004101Y019601D01*
X012101Y019601D02*
X017351Y024851D01*
X017351Y071851D01*
X019601Y074101D01*
X020101Y074101D01*
X020101Y075101D02*
X019601Y075101D01*
X016601Y072101D01*
X016601Y034101D01*
X012101Y029601D01*
X008101Y033601D02*
X008101Y073601D01*
X009601Y075101D01*
X010101Y075101D01*
X010101Y076101D02*
X009601Y076101D01*
X007351Y073851D01*
X007351Y042851D01*
X004101Y039601D01*
X008101Y033601D02*
X004101Y029601D01*
X012101Y039601D02*
X015851Y043351D01*
X015851Y072351D01*
X019601Y076101D01*
X020101Y076101D01*
X020101Y077101D02*
X019601Y077101D01*
X015101Y072601D01*
X015101Y049601D01*
X013601Y048101D01*
X006601Y049101D02*
X006601Y074101D01*
X009601Y077101D01*
X010101Y077101D01*
X010101Y078101D02*
X009601Y078101D01*
X005851Y074351D01*
X005851Y057351D01*
X004101Y055601D01*
X006601Y049101D02*
X005601Y048101D01*
X012101Y055601D02*
X014351Y057851D01*
X014351Y072851D01*
X019601Y078101D01*
X020101Y078101D01*
X020101Y079101D02*
X019601Y079101D01*
X013601Y073101D01*
X013601Y067101D01*
X012101Y065601D01*
X005101Y066601D02*
X005101Y074601D01*
X009601Y079101D01*
X010101Y079101D01*
X010101Y080101D02*
X009601Y080101D01*
X005101Y075601D01*
X004101Y075601D01*
X009101Y081101D02*
X010101Y081101D01*
X010101Y082101D02*
X009101Y082101D01*
X014101Y088101D02*
X014101Y091601D01*
X015351Y092851D01*
X043351Y092851D01*
X043601Y093101D01*
X043601Y093601D01*
X044601Y093601D02*
X044601Y093101D01*
X043601Y092101D01*
X025601Y092101D01*
X024101Y090601D01*
X024101Y088101D01*
X027101Y082101D02*
X030101Y082101D01*
X030101Y081101D02*
X027101Y081101D01*
X029601Y080101D02*
X025101Y075601D01*
X022101Y075601D01*
X023601Y073101D02*
X029601Y079101D01*
X030101Y079101D01*
X030101Y080101D02*
X029601Y080101D01*
X029601Y078101D02*
X030101Y078101D01*
X029601Y078101D02*
X024351Y072851D01*
X024351Y057851D01*
X022101Y055601D01*
X025101Y049601D02*
X025101Y072601D01*
X029601Y077101D01*
X030101Y077101D01*
X030101Y076101D02*
X029601Y076101D01*
X025851Y072351D01*
X025851Y043351D01*
X022101Y039601D01*
X026601Y034101D02*
X026601Y072101D01*
X029601Y075101D01*
X030101Y075101D01*
X030101Y074101D02*
X029601Y074101D01*
X027351Y071851D01*
X027351Y024851D01*
X022101Y019601D01*
X018101Y015601D02*
X018101Y071601D01*
X019601Y073101D01*
X020101Y073101D01*
X023601Y073101D02*
X023601Y067101D01*
X022101Y065601D01*
X028101Y071601D02*
X029601Y073101D01*
X030101Y073101D01*
X028101Y071601D02*
X028101Y015601D01*
X022101Y009601D01*
X018101Y015601D02*
X012101Y009601D01*
X032101Y009601D02*
X038101Y015601D01*
X038101Y071601D01*
X039601Y073101D01*
X040101Y073101D01*
X040101Y074101D02*
X039601Y074101D01*
X037351Y071851D01*
X037351Y024851D01*
X032101Y019601D01*
X041601Y019601D02*
X046851Y024851D01*
X046851Y071351D01*
X049601Y074101D01*
X050101Y074101D01*
X050101Y075101D02*
X049601Y075101D01*
X046101Y071601D01*
X046101Y034101D01*
X041601Y029601D01*
X036601Y034101D02*
X036601Y072101D01*
X039601Y075101D01*
X040101Y075101D01*
X040101Y076101D02*
X039601Y076101D01*
X035851Y072351D01*
X035851Y043351D01*
X032101Y039601D01*
X036601Y034101D02*
X032101Y029601D01*
X026601Y034101D02*
X022101Y029601D01*
X023601Y048101D02*
X025101Y049601D01*
X032101Y055601D02*
X034351Y057851D01*
X034351Y072851D01*
X039601Y078101D01*
X040101Y078101D01*
X040101Y079101D02*
X039601Y079101D01*
X033601Y073101D01*
X033601Y067101D01*
X032101Y065601D01*
X035101Y072601D02*
X039601Y077101D01*
X040101Y077101D01*
X041601Y075601D02*
X045101Y075601D01*
X049601Y080101D01*
X050101Y080101D01*
X050101Y081101D02*
X046601Y081101D01*
X046601Y082101D02*
X050101Y082101D01*
X050101Y079101D02*
X049601Y079101D01*
X043101Y072601D01*
X043101Y067101D01*
X041601Y065601D01*
X044601Y072101D02*
X049601Y077101D01*
X050101Y077101D01*
X050101Y078101D02*
X049601Y078101D01*
X043851Y072351D01*
X043851Y057851D01*
X041601Y055601D01*
X044601Y049601D02*
X044601Y072101D01*
X045351Y071851D02*
X049601Y076101D01*
X050101Y076101D01*
X052101Y075601D02*
X055101Y075601D01*
X059601Y080101D01*
X060101Y080101D01*
X060101Y081101D02*
X057101Y081101D01*
X057101Y082101D02*
X060101Y082101D01*
X060101Y079101D02*
X059601Y079101D01*
X053601Y073101D01*
X053601Y067101D01*
X052101Y065601D01*
X047601Y071101D02*
X049601Y073101D01*
X050101Y073101D01*
X047601Y071101D02*
X047601Y015601D01*
X041601Y009601D01*
X052101Y009601D02*
X058101Y015601D01*
X058101Y071601D01*
X059601Y073101D01*
X060101Y073101D01*
X060101Y074101D02*
X059601Y074101D01*
X057351Y071851D01*
X057351Y024851D01*
X052101Y019601D01*
X062101Y019601D02*
X067351Y024851D01*
X067351Y071851D01*
X069601Y074101D01*
X070101Y074101D01*
X070101Y075101D02*
X069601Y075101D01*
X066601Y072101D01*
X066601Y034101D01*
X062101Y029601D01*
X056601Y034101D02*
X056601Y072101D01*
X059601Y075101D01*
X060101Y075101D01*
X060101Y076101D02*
X059601Y076101D01*
X055851Y072351D01*
X055851Y043351D01*
X052101Y039601D01*
X056601Y034101D02*
X052101Y029601D01*
X062101Y039601D02*
X065851Y043351D01*
X065851Y072351D01*
X069601Y076101D01*
X070101Y076101D01*
X070101Y077101D02*
X069601Y077101D01*
X065101Y072601D01*
X065101Y049601D01*
X063601Y048101D01*
X062101Y055601D02*
X064351Y057851D01*
X064351Y072851D01*
X069601Y078101D01*
X070101Y078101D01*
X070101Y079101D02*
X069601Y079101D01*
X063601Y073101D01*
X063601Y067101D01*
X062101Y065601D01*
X068101Y071601D02*
X069601Y073101D01*
X070101Y073101D01*
X068101Y071601D02*
X068101Y015601D01*
X062101Y009601D01*
X072101Y009601D02*
X078101Y015601D01*
X078101Y071601D01*
X079601Y073101D01*
X080101Y073101D01*
X080101Y074101D02*
X079601Y074101D01*
X077351Y071851D01*
X077351Y024851D01*
X072101Y019601D01*
X082101Y019601D02*
X086851Y024351D01*
X086851Y073351D01*
X087601Y074101D01*
X088101Y074101D01*
X088101Y075101D02*
X087601Y075101D01*
X086101Y073601D01*
X086101Y033601D01*
X082101Y029601D01*
X076601Y034101D02*
X076601Y072101D01*
X079601Y075101D01*
X080101Y075101D01*
X080101Y076101D02*
X079601Y076101D01*
X075851Y072351D01*
X075851Y043351D01*
X072101Y039601D01*
X076601Y034101D02*
X072101Y029601D01*
X082101Y039601D02*
X085351Y042851D01*
X085351Y073851D01*
X087601Y076101D01*
X088101Y076101D01*
X089101Y076351D02*
X089101Y075101D01*
X089101Y076351D02*
X092851Y080101D01*
X093101Y080101D01*
X093101Y081101D02*
X092101Y081101D01*
X092101Y084601D01*
X091101Y085601D01*
X090101Y085601D01*
X089101Y086101D02*
X089601Y086601D01*
X091601Y086601D01*
X093101Y085101D01*
X093101Y082101D01*
X089101Y086101D02*
X088601Y086101D01*
X090101Y088101D02*
X091601Y089601D01*
X091601Y092101D01*
X090101Y093601D01*
X051601Y093601D01*
X050601Y093601D02*
X050601Y093101D01*
X050851Y092851D01*
X078851Y092851D01*
X080101Y091601D01*
X080101Y088101D01*
X080101Y082101D02*
X077101Y082101D01*
X077101Y081101D02*
X080101Y081101D01*
X080101Y080101D02*
X079601Y080101D01*
X075101Y075601D01*
X072101Y075601D01*
X073601Y073101D02*
X079601Y079101D01*
X080101Y079101D01*
X080101Y078101D02*
X079601Y078101D01*
X074351Y072851D01*
X074351Y057851D01*
X072101Y055601D01*
X075101Y049601D02*
X075101Y072601D01*
X079601Y077101D01*
X080101Y077101D01*
X082101Y075601D02*
X086601Y080101D01*
X088101Y080101D01*
X088101Y081101D02*
X087101Y081101D01*
X087101Y082101D02*
X088101Y082101D01*
X088101Y079101D02*
X087601Y079101D01*
X083101Y074601D01*
X083101Y066601D01*
X082101Y065601D01*
X083851Y057351D02*
X083851Y074351D01*
X087601Y078101D01*
X088101Y078101D01*
X088101Y077101D02*
X087601Y077101D01*
X084601Y074101D01*
X084601Y049101D01*
X083601Y048101D01*
X082101Y055601D02*
X083851Y057351D01*
X075101Y049601D02*
X073601Y048101D01*
X072101Y065601D02*
X073601Y067101D01*
X073601Y073101D01*
X070101Y080101D02*
X069601Y080101D01*
X065101Y075601D01*
X062101Y075601D01*
X060101Y077101D02*
X059601Y077101D01*
X055101Y072601D01*
X055101Y049601D01*
X053601Y048101D01*
X052101Y055601D02*
X054351Y057851D01*
X054351Y072851D01*
X059601Y078101D01*
X060101Y078101D01*
X067101Y081101D02*
X070101Y081101D01*
X070101Y082101D02*
X067101Y082101D01*
X070101Y088101D02*
X070101Y090601D01*
X068601Y092101D01*
X050601Y092101D01*
X049601Y093101D01*
X049601Y093601D01*
X048601Y093601D02*
X048601Y093101D01*
X050351Y091351D01*
X058851Y091351D01*
X060101Y090101D01*
X060101Y088101D01*
X050101Y088101D02*
X050101Y090601D01*
X047601Y093101D01*
X047601Y093601D01*
X046601Y093601D02*
X046601Y093101D01*
X044101Y090601D01*
X044101Y088101D01*
X043851Y091351D02*
X045601Y093101D01*
X045601Y093601D01*
X043851Y091351D02*
X035351Y091351D01*
X034101Y090101D01*
X034101Y088101D01*
X037101Y082101D02*
X040101Y082101D01*
X040101Y081101D02*
X037101Y081101D01*
X039601Y080101D02*
X035101Y075601D01*
X032101Y075601D01*
X035101Y072601D02*
X035101Y049601D01*
X033601Y048101D01*
X041601Y039601D02*
X045351Y043351D01*
X045351Y071851D01*
X040101Y080101D02*
X039601Y080101D01*
X042601Y093601D02*
X004101Y093601D01*
X002601Y092101D01*
X002601Y089601D01*
X004101Y088101D01*
X012101Y075601D02*
X015101Y075601D01*
X019601Y080101D01*
X020101Y080101D01*
X020101Y081101D02*
X017601Y081101D01*
X017601Y082101D02*
X020101Y082101D01*
X005101Y066601D02*
X004101Y065601D01*
X043101Y048101D02*
X044601Y049601D01*
X082101Y009601D02*
X087601Y015101D01*
X087601Y073101D01*
X088101Y073101D01*
D17*
X088351Y071851D02*
X089851Y073351D01*
X089851Y075851D01*
X093101Y079101D01*
X093101Y078101D02*
X090351Y075351D01*
X090351Y072101D01*
X091101Y070601D01*
X091101Y056601D01*
X090101Y055601D01*
X091601Y049601D02*
X091601Y070601D01*
X090851Y072101D01*
X090851Y074851D01*
X093101Y077101D01*
X093101Y076101D02*
X091351Y074351D01*
X091351Y072101D01*
X092101Y070601D01*
X092101Y041601D01*
X090101Y039601D01*
X092601Y032101D02*
X092601Y070601D01*
X091851Y072101D01*
X091851Y073851D01*
X093101Y075101D01*
X093101Y074101D02*
X092351Y073351D01*
X092351Y072101D01*
X093101Y070601D01*
X093101Y022601D01*
X090101Y019601D01*
X093601Y013101D02*
X093601Y072601D01*
X093101Y073101D01*
X088351Y071851D02*
X088351Y066851D01*
X089601Y065601D01*
X090101Y065601D01*
X091601Y049601D02*
X091101Y049101D01*
X092601Y032101D02*
X090101Y029601D01*
X093601Y013101D02*
X090101Y009601D01*
M02*
