%
M48
M72
T01C0.0320
T02C0.0354
T03C0.0400
T04C0.0433
T05C0.0440
T06C0.1300
%
T01
X5681Y6054
X5681Y7054
X5681Y8054
X5681Y9054
X5681Y10054
X5681Y11054
X5681Y12054
X5681Y13054
X8681Y13054
X8681Y12054
X8681Y11054
X8681Y10054
X8681Y9054
X8681Y8054
X8681Y7054
X8681Y6054
X15681Y6054
X15681Y7054
X15681Y8054
X15681Y9054
X15681Y10054
X15681Y11054
X15681Y12054
X15681Y13054
X18681Y13054
X18681Y12054
X18681Y11054
X18681Y10054
X18681Y9054
X18681Y8054
X18681Y7054
X18681Y6054
X25681Y6054
X25681Y7054
X25681Y8054
X25681Y9054
X25681Y10054
X25681Y11054
X25681Y12054
X25681Y13054
X28681Y13054
X28681Y12054
X28681Y11054
X28681Y10054
X28681Y9054
X28681Y8054
X28681Y7054
X28681Y6054
X35681Y6054
X35681Y7054
X35681Y8054
X35681Y9054
X35681Y10054
X35681Y11054
X35681Y12054
X35681Y13054
X38681Y13054
X38681Y12054
X38681Y11054
X38681Y10054
X38681Y9054
X38681Y8054
X38681Y7054
X38681Y6054
X45681Y6054
X45681Y7054
X45681Y8054
X45681Y9054
X45681Y10054
X45681Y11054
X45681Y12054
X45681Y13054
X48681Y13054
X48681Y12054
X48681Y11054
X48681Y10054
X48681Y9054
X48681Y8054
X48681Y7054
X48681Y6054
X55681Y6054
X55681Y7054
X55681Y8054
X55681Y9054
X55681Y10054
X55681Y11054
X55681Y12054
X55681Y13054
X58681Y13054
X58681Y12054
X58681Y11054
X58681Y10054
X58681Y9054
X58681Y8054
X58681Y7054
X58681Y6054
X65681Y6054
X65681Y7054
X65681Y8054
X65681Y9054
X65681Y10054
X65681Y11054
X65681Y12054
X65681Y13054
X68681Y13054
X68681Y12054
X68681Y11054
X68681Y10054
X68681Y9054
X68681Y8054
X68681Y7054
X68681Y6054
X75681Y6054
X75681Y7054
X75681Y8054
X75681Y9054
X75681Y10054
X75681Y11054
X75681Y12054
X75681Y13054
X78681Y13054
X78681Y12054
X78681Y11054
X78681Y10054
X78681Y9054
X78681Y8054
X78681Y7054
X78681Y6054
X83681Y6054
X83681Y7054
X83681Y8054
X83681Y9054
X83681Y10054
X83681Y11054
X83681Y12054
X83681Y13054
X86681Y13054
X86681Y12054
X86681Y11054
X86681Y10054
X86681Y9054
X86681Y8054
X86681Y7054
X86681Y6054
X86681Y15054
X86681Y16054
X86681Y17054
X86681Y18054
X86681Y19054
X86681Y20054
X86681Y21054
X86681Y22054
X83681Y22054
X83681Y21054
X83681Y20054
X83681Y19054
X83681Y18054
X83681Y17054
X83681Y16054
X83681Y15054
X78681Y15054
X78681Y16054
X78681Y17054
X78681Y18054
X78681Y19054
X78681Y20054
X78681Y21054
X78681Y22054
X75681Y22054
X75681Y21054
X75681Y20054
X75681Y19054
X75681Y18054
X75681Y17054
X75681Y16054
X75681Y15054
X68681Y15054
X68681Y16054
X68681Y17054
X68681Y18054
X68681Y19054
X68681Y20054
X68681Y21054
X68681Y22054
X65681Y22054
X65681Y21054
X65681Y20054
X65681Y19054
X65681Y18054
X65681Y17054
X65681Y16054
X65681Y15054
X58681Y15054
X58681Y16054
X58681Y17054
X58681Y18054
X58681Y19054
X58681Y20054
X58681Y21054
X58681Y22054
X55681Y22054
X55681Y21054
X55681Y20054
X55681Y19054
X55681Y18054
X55681Y17054
X55681Y16054
X55681Y15054
X48681Y15054
X48681Y16054
X48681Y17054
X48681Y18054
X48681Y19054
X48681Y20054
X48681Y21054
X48681Y22054
X45681Y22054
X45681Y21054
X45681Y20054
X45681Y19054
X45681Y18054
X45681Y17054
X45681Y16054
X45681Y15054
X38681Y15054
X38681Y16054
X38681Y17054
X38681Y18054
X38681Y19054
X38681Y20054
X38681Y21054
X38681Y22054
X35681Y22054
X35681Y21054
X35681Y20054
X35681Y19054
X35681Y18054
X35681Y17054
X35681Y16054
X35681Y15054
X28681Y15054
X28681Y16054
X28681Y17054
X28681Y18054
X28681Y19054
X28681Y20054
X28681Y21054
X28681Y22054
X25681Y22054
X25681Y21054
X25681Y20054
X25681Y19054
X25681Y18054
X25681Y17054
X25681Y16054
X25681Y15054
X18681Y15054
X18681Y16054
X18681Y17054
X18681Y18054
X18681Y19054
X18681Y20054
X18681Y21054
X18681Y22054
X15681Y22054
X15681Y21054
X15681Y20054
X15681Y19054
X15681Y18054
X15681Y17054
X15681Y16054
X15681Y15054
X8681Y15054
X8681Y16054
X8681Y17054
X8681Y18054
X8681Y19054
X8681Y20054
X8681Y21054
X8681Y22054
X5681Y22054
X5681Y21054
X5681Y20054
X5681Y19054
X5681Y18054
X5681Y17054
X5681Y16054
X5681Y15054
X79681Y26554
X79681Y27554
X79681Y28554
X79681Y29554
X79681Y30554
X79681Y31554
X79681Y32554
X79681Y33554
X82681Y33554
X82681Y32554
X82681Y31554
X82681Y30554
X82681Y29554
X82681Y28554
X82681Y27554
X82681Y26554
X86681Y26554
X86681Y27554
X86681Y28554
X86681Y29554
X86681Y30554
X86681Y31554
X86681Y32554
X86681Y33554
X89681Y33554
X89681Y32554
X89681Y31554
X89681Y30554
X89681Y29554
X89681Y28554
X89681Y27554
X89681Y26554
T02
X16181Y32554
X16181Y33554
X12181Y33554
X9681Y33554
X9681Y32554
X12181Y32554
X9681Y31554
X9681Y30554
X9681Y29554
X9681Y28554
X9681Y27554
X9681Y26554
X5681Y26554
X5681Y27554
X5681Y28554
X5681Y29554
X5681Y30554
X5681Y31554
X5681Y32554
X5681Y33554
T03
X4181Y1554
X5181Y1554
X6181Y1554
X7181Y1554
X8181Y1554
X9181Y1554
X10181Y1554
X11181Y1554
X12181Y1554
X13181Y1554
X15181Y1554
X16181Y1554
X17181Y1554
X18181Y1554
X19181Y1554
X20181Y1554
X21181Y1554
X22181Y1554
X23181Y1554
X24181Y1554
X27181Y1554
X28181Y1554
X29181Y1554
X30181Y1554
X31181Y1554
X32181Y1554
X33181Y1554
X34181Y1554
X30181Y14054
X30181Y15054
X30181Y16054
X30181Y17054
X30181Y18054
X30181Y19054
X30181Y20054
X30181Y21054
X30181Y22054
X30181Y23054
X20181Y23054
X20181Y22054
X20181Y21054
X20181Y20054
X20181Y19054
X20181Y18054
X20181Y17054
X20181Y16054
X20181Y15054
X20181Y14054
X10181Y14054
X10181Y15054
X10181Y16054
X10181Y17054
X10181Y18054
X10181Y19054
X10181Y20054
X10181Y21054
X10181Y22054
X10181Y23054
X40181Y23054
X40181Y22054
X40181Y21054
X40181Y20054
X40181Y19054
X40181Y18054
X40181Y17054
X40181Y16054
X40181Y15054
X40181Y14054
X50181Y14054
X50181Y15054
X50181Y16054
X50181Y17054
X50181Y18054
X50181Y19054
X50181Y20054
X50181Y21054
X50181Y22054
X50181Y23054
X60181Y23054
X60181Y22054
X60181Y21054
X60181Y20054
X60181Y19054
X60181Y18054
X60181Y17054
X60181Y16054
X60181Y15054
X60181Y14054
X70181Y14054
X70181Y15054
X70181Y16054
X70181Y17054
X70181Y18054
X70181Y19054
X70181Y20054
X70181Y21054
X70181Y22054
X70181Y23054
X80181Y23054
X80181Y22054
X80181Y21054
X80181Y20054
X80181Y19054
X80181Y18054
X80181Y17054
X80181Y16054
X80181Y15054
X80181Y14054
X88181Y14054
X88181Y15054
X88181Y16054
X88181Y17054
X88181Y18054
X88181Y19054
X88181Y20054
X88181Y21054
X88181Y22054
X88181Y23054
X93181Y23054
X93181Y22054
X93181Y21054
X93181Y20054
X93181Y19054
X93181Y18054
X93181Y17054
X93181Y16054
X93181Y15054
X93181Y14054
X51681Y34554
X50681Y34554
X49681Y34554
X48681Y34554
X47681Y34554
X46681Y34554
X45681Y34554
X44681Y34554
X43681Y34554
X42681Y34554
T04
X46181Y27054
X47181Y27054
X48181Y27054
X84431Y25304
X86681Y25304
X77181Y4554
X85181Y4054
X67181Y4554
X57181Y4554
X47181Y4554
X37181Y4554
X17181Y4554
X12181Y6054
T05
X18181Y26554
X19181Y26554
X20181Y26554
X23181Y26554
X24181Y26554
X25181Y26554
X28181Y26554
X29181Y26554
X30181Y26554
X33181Y26554
X34181Y26554
X35181Y26554
X38181Y26554
X39181Y26554
X40181Y26554
X54181Y26554
X55181Y26554
X56181Y26554
X59181Y26554
X60181Y26554
X61181Y26554
X64181Y26554
X65181Y26554
X66181Y26554
X69181Y26554
X70181Y26554
X71181Y26554
X74181Y26554
X75181Y26554
X76181Y26554
T06
X75181Y33454
X70181Y33454
X65181Y33454
X60181Y33454
X55181Y33454
X39181Y33454
X34181Y33454
X29181Y33454
X24181Y33454
X19181Y33454
M30
