G75*
G70*
%OFA0B0*%
%FSLAX24Y24*%
%IPPOS*%
%LPD*%
%AMOC8*
5,1,8,0,0,1.08239X$1,22.5*
%
%ADD10C,0.0600*%
%ADD11C,0.0820*%
%ADD12C,0.0740*%
%ADD13C,0.1380*%
%ADD14R,0.0820X0.0820*%
%ADD15C,0.0730*%
D10*
X005421Y006054D02*
X005941Y006054D01*
X008421Y006054D02*
X008941Y006054D01*
X008941Y007054D02*
X008421Y007054D01*
X005941Y007054D02*
X005421Y007054D01*
X005421Y008054D02*
X005941Y008054D01*
X008421Y008054D02*
X008941Y008054D01*
X008941Y009054D02*
X008421Y009054D01*
X008421Y010054D02*
X008941Y010054D01*
X008941Y011054D02*
X008421Y011054D01*
X005941Y011054D02*
X005421Y011054D01*
X005421Y010054D02*
X005941Y010054D01*
X005941Y009054D02*
X005421Y009054D01*
X005421Y012054D02*
X005941Y012054D01*
X008421Y012054D02*
X008941Y012054D01*
X008941Y013054D02*
X008421Y013054D01*
X005941Y013054D02*
X005421Y013054D01*
X005421Y015054D02*
X005941Y015054D01*
X008421Y015054D02*
X008941Y015054D01*
X008941Y016054D02*
X008421Y016054D01*
X005941Y016054D02*
X005421Y016054D01*
X005421Y017054D02*
X005941Y017054D01*
X008421Y017054D02*
X008941Y017054D01*
X008941Y018054D02*
X008421Y018054D01*
X008421Y019054D02*
X008941Y019054D01*
X008941Y020054D02*
X008421Y020054D01*
X005941Y020054D02*
X005421Y020054D01*
X005421Y019054D02*
X005941Y019054D01*
X005941Y018054D02*
X005421Y018054D01*
X005421Y021054D02*
X005941Y021054D01*
X008421Y021054D02*
X008941Y021054D01*
X008941Y022054D02*
X008421Y022054D01*
X005941Y022054D02*
X005421Y022054D01*
X015421Y022054D02*
X015941Y022054D01*
X015941Y021054D02*
X015421Y021054D01*
X015421Y020054D02*
X015941Y020054D01*
X015941Y019054D02*
X015421Y019054D01*
X015421Y018054D02*
X015941Y018054D01*
X015941Y017054D02*
X015421Y017054D01*
X015421Y016054D02*
X015941Y016054D01*
X015941Y015054D02*
X015421Y015054D01*
X018421Y015054D02*
X018941Y015054D01*
X018941Y016054D02*
X018421Y016054D01*
X018421Y017054D02*
X018941Y017054D01*
X018941Y018054D02*
X018421Y018054D01*
X018421Y019054D02*
X018941Y019054D01*
X018941Y020054D02*
X018421Y020054D01*
X018421Y021054D02*
X018941Y021054D01*
X018941Y022054D02*
X018421Y022054D01*
X025421Y022054D02*
X025941Y022054D01*
X028421Y022054D02*
X028941Y022054D01*
X028941Y021054D02*
X028421Y021054D01*
X025941Y021054D02*
X025421Y021054D01*
X025421Y020054D02*
X025941Y020054D01*
X028421Y020054D02*
X028941Y020054D01*
X028941Y019054D02*
X028421Y019054D01*
X028421Y018054D02*
X028941Y018054D01*
X028941Y017054D02*
X028421Y017054D01*
X025941Y017054D02*
X025421Y017054D01*
X025421Y016054D02*
X025941Y016054D01*
X028421Y016054D02*
X028941Y016054D01*
X028941Y015054D02*
X028421Y015054D01*
X025941Y015054D02*
X025421Y015054D01*
X025421Y013054D02*
X025941Y013054D01*
X028421Y013054D02*
X028941Y013054D01*
X028941Y012054D02*
X028421Y012054D01*
X025941Y012054D02*
X025421Y012054D01*
X025421Y011054D02*
X025941Y011054D01*
X028421Y011054D02*
X028941Y011054D01*
X028941Y010054D02*
X028421Y010054D01*
X028421Y009054D02*
X028941Y009054D01*
X028941Y008054D02*
X028421Y008054D01*
X025941Y008054D02*
X025421Y008054D01*
X025421Y007054D02*
X025941Y007054D01*
X028421Y007054D02*
X028941Y007054D01*
X028941Y006054D02*
X028421Y006054D01*
X025941Y006054D02*
X025421Y006054D01*
X018941Y006054D02*
X018421Y006054D01*
X018421Y007054D02*
X018941Y007054D01*
X018941Y008054D02*
X018421Y008054D01*
X018421Y009054D02*
X018941Y009054D01*
X018941Y010054D02*
X018421Y010054D01*
X018421Y011054D02*
X018941Y011054D01*
X018941Y012054D02*
X018421Y012054D01*
X018421Y013054D02*
X018941Y013054D01*
X015941Y013054D02*
X015421Y013054D01*
X015421Y012054D02*
X015941Y012054D01*
X015941Y011054D02*
X015421Y011054D01*
X015421Y010054D02*
X015941Y010054D01*
X015941Y009054D02*
X015421Y009054D01*
X015421Y008054D02*
X015941Y008054D01*
X015941Y007054D02*
X015421Y007054D01*
X015421Y006054D02*
X015941Y006054D01*
X025421Y009054D02*
X025941Y009054D01*
X025941Y010054D02*
X025421Y010054D01*
X035421Y010054D02*
X035941Y010054D01*
X035941Y009054D02*
X035421Y009054D01*
X035421Y008054D02*
X035941Y008054D01*
X035941Y007054D02*
X035421Y007054D01*
X035421Y006054D02*
X035941Y006054D01*
X038421Y006054D02*
X038941Y006054D01*
X038941Y007054D02*
X038421Y007054D01*
X038421Y008054D02*
X038941Y008054D01*
X038941Y009054D02*
X038421Y009054D01*
X038421Y010054D02*
X038941Y010054D01*
X038941Y011054D02*
X038421Y011054D01*
X038421Y012054D02*
X038941Y012054D01*
X038941Y013054D02*
X038421Y013054D01*
X035941Y013054D02*
X035421Y013054D01*
X035421Y012054D02*
X035941Y012054D01*
X035941Y011054D02*
X035421Y011054D01*
X045421Y011054D02*
X045941Y011054D01*
X045941Y010054D02*
X045421Y010054D01*
X045421Y009054D02*
X045941Y009054D01*
X045941Y008054D02*
X045421Y008054D01*
X045421Y007054D02*
X045941Y007054D01*
X045941Y006054D02*
X045421Y006054D01*
X048421Y006054D02*
X048941Y006054D01*
X048941Y007054D02*
X048421Y007054D01*
X048421Y008054D02*
X048941Y008054D01*
X048941Y009054D02*
X048421Y009054D01*
X048421Y010054D02*
X048941Y010054D01*
X048941Y011054D02*
X048421Y011054D01*
X048421Y012054D02*
X048941Y012054D01*
X048941Y013054D02*
X048421Y013054D01*
X045941Y013054D02*
X045421Y013054D01*
X045421Y012054D02*
X045941Y012054D01*
X045941Y015054D02*
X045421Y015054D01*
X045421Y016054D02*
X045941Y016054D01*
X045941Y017054D02*
X045421Y017054D01*
X045421Y018054D02*
X045941Y018054D01*
X045941Y019054D02*
X045421Y019054D01*
X045421Y020054D02*
X045941Y020054D01*
X045941Y021054D02*
X045421Y021054D01*
X045421Y022054D02*
X045941Y022054D01*
X048421Y022054D02*
X048941Y022054D01*
X048941Y021054D02*
X048421Y021054D01*
X048421Y020054D02*
X048941Y020054D01*
X048941Y019054D02*
X048421Y019054D01*
X048421Y018054D02*
X048941Y018054D01*
X048941Y017054D02*
X048421Y017054D01*
X048421Y016054D02*
X048941Y016054D01*
X048941Y015054D02*
X048421Y015054D01*
X055421Y015054D02*
X055941Y015054D01*
X055941Y016054D02*
X055421Y016054D01*
X055421Y017054D02*
X055941Y017054D01*
X055941Y018054D02*
X055421Y018054D01*
X055421Y019054D02*
X055941Y019054D01*
X055941Y020054D02*
X055421Y020054D01*
X055421Y021054D02*
X055941Y021054D01*
X055941Y022054D02*
X055421Y022054D01*
X058421Y022054D02*
X058941Y022054D01*
X058941Y021054D02*
X058421Y021054D01*
X058421Y020054D02*
X058941Y020054D01*
X058941Y019054D02*
X058421Y019054D01*
X058421Y018054D02*
X058941Y018054D01*
X058941Y017054D02*
X058421Y017054D01*
X058421Y016054D02*
X058941Y016054D01*
X058941Y015054D02*
X058421Y015054D01*
X058421Y013054D02*
X058941Y013054D01*
X058941Y012054D02*
X058421Y012054D01*
X058421Y011054D02*
X058941Y011054D01*
X058941Y010054D02*
X058421Y010054D01*
X058421Y009054D02*
X058941Y009054D01*
X058941Y008054D02*
X058421Y008054D01*
X058421Y007054D02*
X058941Y007054D01*
X058941Y006054D02*
X058421Y006054D01*
X055941Y006054D02*
X055421Y006054D01*
X055421Y007054D02*
X055941Y007054D01*
X055941Y008054D02*
X055421Y008054D01*
X055421Y009054D02*
X055941Y009054D01*
X055941Y010054D02*
X055421Y010054D01*
X055421Y011054D02*
X055941Y011054D01*
X055941Y012054D02*
X055421Y012054D01*
X055421Y013054D02*
X055941Y013054D01*
X065421Y013054D02*
X065941Y013054D01*
X065941Y012054D02*
X065421Y012054D01*
X065421Y011054D02*
X065941Y011054D01*
X065941Y010054D02*
X065421Y010054D01*
X065421Y009054D02*
X065941Y009054D01*
X065941Y008054D02*
X065421Y008054D01*
X065421Y007054D02*
X065941Y007054D01*
X065941Y006054D02*
X065421Y006054D01*
X068421Y006054D02*
X068941Y006054D01*
X068941Y007054D02*
X068421Y007054D01*
X068421Y008054D02*
X068941Y008054D01*
X068941Y009054D02*
X068421Y009054D01*
X068421Y010054D02*
X068941Y010054D01*
X068941Y011054D02*
X068421Y011054D01*
X068421Y012054D02*
X068941Y012054D01*
X068941Y013054D02*
X068421Y013054D01*
X068421Y015054D02*
X068941Y015054D01*
X068941Y016054D02*
X068421Y016054D01*
X068421Y017054D02*
X068941Y017054D01*
X068941Y018054D02*
X068421Y018054D01*
X068421Y019054D02*
X068941Y019054D01*
X068941Y020054D02*
X068421Y020054D01*
X068421Y021054D02*
X068941Y021054D01*
X068941Y022054D02*
X068421Y022054D01*
X065941Y022054D02*
X065421Y022054D01*
X065421Y021054D02*
X065941Y021054D01*
X065941Y020054D02*
X065421Y020054D01*
X065421Y019054D02*
X065941Y019054D01*
X065941Y018054D02*
X065421Y018054D01*
X065421Y017054D02*
X065941Y017054D01*
X065941Y016054D02*
X065421Y016054D01*
X065421Y015054D02*
X065941Y015054D01*
X075421Y015054D02*
X075941Y015054D01*
X078421Y015054D02*
X078941Y015054D01*
X078941Y016054D02*
X078421Y016054D01*
X075941Y016054D02*
X075421Y016054D01*
X075421Y017054D02*
X075941Y017054D01*
X078421Y017054D02*
X078941Y017054D01*
X078941Y018054D02*
X078421Y018054D01*
X078421Y019054D02*
X078941Y019054D01*
X078941Y020054D02*
X078421Y020054D01*
X075941Y020054D02*
X075421Y020054D01*
X075421Y019054D02*
X075941Y019054D01*
X075941Y018054D02*
X075421Y018054D01*
X075421Y021054D02*
X075941Y021054D01*
X078421Y021054D02*
X078941Y021054D01*
X078941Y022054D02*
X078421Y022054D01*
X075941Y022054D02*
X075421Y022054D01*
X083421Y022054D02*
X083941Y022054D01*
X083941Y021054D02*
X083421Y021054D01*
X083421Y020054D02*
X083941Y020054D01*
X083941Y019054D02*
X083421Y019054D01*
X083421Y018054D02*
X083941Y018054D01*
X083941Y017054D02*
X083421Y017054D01*
X083421Y016054D02*
X083941Y016054D01*
X083941Y015054D02*
X083421Y015054D01*
X086421Y015054D02*
X086941Y015054D01*
X086941Y016054D02*
X086421Y016054D01*
X086421Y017054D02*
X086941Y017054D01*
X086941Y018054D02*
X086421Y018054D01*
X086421Y019054D02*
X086941Y019054D01*
X086941Y020054D02*
X086421Y020054D01*
X086421Y021054D02*
X086941Y021054D01*
X086941Y022054D02*
X086421Y022054D01*
X086421Y026554D02*
X086941Y026554D01*
X086941Y027554D02*
X086421Y027554D01*
X086421Y028554D02*
X086941Y028554D01*
X086941Y029554D02*
X086421Y029554D01*
X086421Y030554D02*
X086941Y030554D01*
X086941Y031554D02*
X086421Y031554D01*
X086421Y032554D02*
X086941Y032554D01*
X086941Y033554D02*
X086421Y033554D01*
X089421Y033554D02*
X089941Y033554D01*
X089941Y032554D02*
X089421Y032554D01*
X089421Y031554D02*
X089941Y031554D01*
X089941Y030554D02*
X089421Y030554D01*
X089421Y029554D02*
X089941Y029554D01*
X089941Y028554D02*
X089421Y028554D01*
X089421Y027554D02*
X089941Y027554D01*
X089941Y026554D02*
X089421Y026554D01*
X082941Y026554D02*
X082421Y026554D01*
X079941Y026554D02*
X079421Y026554D01*
X079421Y027554D02*
X079941Y027554D01*
X082421Y027554D02*
X082941Y027554D01*
X082941Y028554D02*
X082421Y028554D01*
X082421Y029554D02*
X082941Y029554D01*
X082941Y030554D02*
X082421Y030554D01*
X079941Y030554D02*
X079421Y030554D01*
X079421Y029554D02*
X079941Y029554D01*
X079941Y028554D02*
X079421Y028554D01*
X079421Y031554D02*
X079941Y031554D01*
X082421Y031554D02*
X082941Y031554D01*
X082941Y032554D02*
X082421Y032554D01*
X079941Y032554D02*
X079421Y032554D01*
X079421Y033554D02*
X079941Y033554D01*
X082421Y033554D02*
X082941Y033554D01*
X038941Y022054D02*
X038421Y022054D01*
X038421Y021054D02*
X038941Y021054D01*
X038941Y020054D02*
X038421Y020054D01*
X038421Y019054D02*
X038941Y019054D01*
X038941Y018054D02*
X038421Y018054D01*
X038421Y017054D02*
X038941Y017054D01*
X038941Y016054D02*
X038421Y016054D01*
X038421Y015054D02*
X038941Y015054D01*
X035941Y015054D02*
X035421Y015054D01*
X035421Y016054D02*
X035941Y016054D01*
X035941Y017054D02*
X035421Y017054D01*
X035421Y018054D02*
X035941Y018054D01*
X035941Y019054D02*
X035421Y019054D01*
X035421Y020054D02*
X035941Y020054D01*
X035941Y021054D02*
X035421Y021054D01*
X035421Y022054D02*
X035941Y022054D01*
X025941Y019054D02*
X025421Y019054D01*
X025421Y018054D02*
X025941Y018054D01*
X075421Y013054D02*
X075941Y013054D01*
X078421Y013054D02*
X078941Y013054D01*
X078941Y012054D02*
X078421Y012054D01*
X075941Y012054D02*
X075421Y012054D01*
X075421Y011054D02*
X075941Y011054D01*
X078421Y011054D02*
X078941Y011054D01*
X078941Y010054D02*
X078421Y010054D01*
X078421Y009054D02*
X078941Y009054D01*
X078941Y008054D02*
X078421Y008054D01*
X075941Y008054D02*
X075421Y008054D01*
X075421Y007054D02*
X075941Y007054D01*
X078421Y007054D02*
X078941Y007054D01*
X078941Y006054D02*
X078421Y006054D01*
X075941Y006054D02*
X075421Y006054D01*
X083421Y006054D02*
X083941Y006054D01*
X083941Y007054D02*
X083421Y007054D01*
X083421Y008054D02*
X083941Y008054D01*
X083941Y009054D02*
X083421Y009054D01*
X083421Y010054D02*
X083941Y010054D01*
X083941Y011054D02*
X083421Y011054D01*
X083421Y012054D02*
X083941Y012054D01*
X083941Y013054D02*
X083421Y013054D01*
X086421Y013054D02*
X086941Y013054D01*
X086941Y012054D02*
X086421Y012054D01*
X086421Y011054D02*
X086941Y011054D01*
X086941Y010054D02*
X086421Y010054D01*
X086421Y009054D02*
X086941Y009054D01*
X086941Y008054D02*
X086421Y008054D01*
X086421Y007054D02*
X086941Y007054D01*
X086941Y006054D02*
X086421Y006054D01*
X075941Y009054D02*
X075421Y009054D01*
X075421Y010054D02*
X075941Y010054D01*
D11*
X004181Y001554D03*
X005181Y001554D03*
X006181Y001554D03*
X007181Y001554D03*
X008181Y001554D03*
X009181Y001554D03*
X010181Y001554D03*
X011181Y001554D03*
X012181Y001554D03*
X013181Y001554D03*
X015181Y001554D03*
X016181Y001554D03*
X017181Y001554D03*
X018181Y001554D03*
X019181Y001554D03*
X020181Y001554D03*
X021181Y001554D03*
X022181Y001554D03*
X023181Y001554D03*
X024181Y001554D03*
X028181Y001554D03*
X029181Y001554D03*
X030181Y001554D03*
X031181Y001554D03*
X032181Y001554D03*
X033181Y001554D03*
X034181Y001554D03*
X030181Y014054D03*
X030181Y015054D03*
X030181Y016054D03*
X030181Y017054D03*
X030181Y018054D03*
X030181Y019054D03*
X030181Y020054D03*
X030181Y021054D03*
X030181Y022054D03*
X030181Y023054D03*
X020181Y023054D03*
X020181Y022054D03*
X020181Y021054D03*
X020181Y020054D03*
X020181Y019054D03*
X020181Y018054D03*
X020181Y017054D03*
X020181Y016054D03*
X020181Y015054D03*
X020181Y014054D03*
X010181Y014054D03*
X010181Y015054D03*
X010181Y016054D03*
X010181Y017054D03*
X010181Y018054D03*
X010181Y019054D03*
X010181Y020054D03*
X010181Y021054D03*
X010181Y022054D03*
X010181Y023054D03*
X009681Y026554D03*
X009681Y027554D03*
X009681Y028554D03*
X009681Y029554D03*
X009681Y030554D03*
X009681Y031554D03*
X009681Y032554D03*
X012181Y032554D03*
X012181Y033554D03*
X009681Y033554D03*
X005681Y033554D03*
X005681Y032554D03*
X005681Y031554D03*
X005681Y030554D03*
X005681Y029554D03*
X005681Y028554D03*
X005681Y027554D03*
X005681Y026554D03*
X016181Y032554D03*
X016181Y033554D03*
X042681Y034554D03*
X043681Y034554D03*
X044681Y034554D03*
X045681Y034554D03*
X046681Y034554D03*
X047681Y034554D03*
X048681Y034554D03*
X049681Y034554D03*
X050681Y034554D03*
X051681Y034554D03*
X050181Y023054D03*
X050181Y022054D03*
X050181Y021054D03*
X050181Y020054D03*
X050181Y019054D03*
X050181Y018054D03*
X050181Y017054D03*
X050181Y016054D03*
X050181Y015054D03*
X050181Y014054D03*
X040181Y014054D03*
X040181Y015054D03*
X040181Y016054D03*
X040181Y017054D03*
X040181Y018054D03*
X040181Y019054D03*
X040181Y020054D03*
X040181Y021054D03*
X040181Y022054D03*
X040181Y023054D03*
X060181Y023054D03*
X060181Y022054D03*
X060181Y021054D03*
X060181Y020054D03*
X060181Y019054D03*
X060181Y018054D03*
X060181Y017054D03*
X060181Y016054D03*
X060181Y015054D03*
X060181Y014054D03*
X070181Y014054D03*
X070181Y015054D03*
X070181Y016054D03*
X070181Y017054D03*
X070181Y018054D03*
X070181Y019054D03*
X070181Y020054D03*
X070181Y021054D03*
X070181Y022054D03*
X070181Y023054D03*
X080181Y023054D03*
X080181Y022054D03*
X080181Y021054D03*
X080181Y020054D03*
X080181Y019054D03*
X080181Y018054D03*
X080181Y017054D03*
X080181Y016054D03*
X080181Y015054D03*
X080181Y014054D03*
X088181Y014054D03*
X088181Y015054D03*
X088181Y016054D03*
X088181Y017054D03*
X088181Y018054D03*
X088181Y019054D03*
X088181Y020054D03*
X088181Y021054D03*
X088181Y022054D03*
X088181Y023054D03*
X093181Y023054D03*
X093181Y022054D03*
X093181Y021054D03*
X093181Y020054D03*
X093181Y019054D03*
X093181Y018054D03*
X093181Y017054D03*
X093181Y016054D03*
X093181Y015054D03*
X093181Y014054D03*
D12*
X076181Y026224D02*
X076181Y026884D01*
X075181Y026884D02*
X075181Y026224D01*
X074181Y026224D02*
X074181Y026884D01*
X071181Y026884D02*
X071181Y026224D01*
X070181Y026224D02*
X070181Y026884D01*
X069181Y026884D02*
X069181Y026224D01*
X066181Y026224D02*
X066181Y026884D01*
X065181Y026884D02*
X065181Y026224D01*
X064181Y026224D02*
X064181Y026884D01*
X061181Y026884D02*
X061181Y026224D01*
X060181Y026224D02*
X060181Y026884D01*
X059181Y026884D02*
X059181Y026224D01*
X056181Y026224D02*
X056181Y026884D01*
X055181Y026884D02*
X055181Y026224D01*
X054181Y026224D02*
X054181Y026884D01*
X040181Y026884D02*
X040181Y026224D01*
X039181Y026224D02*
X039181Y026884D01*
X038181Y026884D02*
X038181Y026224D01*
X035181Y026224D02*
X035181Y026884D01*
X034181Y026884D02*
X034181Y026224D01*
X033181Y026224D02*
X033181Y026884D01*
X030181Y026884D02*
X030181Y026224D01*
X029181Y026224D02*
X029181Y026884D01*
X028181Y026884D02*
X028181Y026224D01*
X025181Y026224D02*
X025181Y026884D01*
X024181Y026884D02*
X024181Y026224D01*
X023181Y026224D02*
X023181Y026884D01*
X020181Y026884D02*
X020181Y026224D01*
X019181Y026224D02*
X019181Y026884D01*
X018181Y026884D02*
X018181Y026224D01*
D13*
X019181Y033454D03*
X024181Y033454D03*
X029181Y033454D03*
X034181Y033454D03*
X039181Y033454D03*
X055181Y033454D03*
X060181Y033454D03*
X065181Y033454D03*
X070181Y033454D03*
X075181Y033454D03*
D14*
X027181Y001554D03*
D15*
X017181Y004554D03*
X012181Y006054D03*
X037181Y004554D03*
X047181Y004554D03*
X057181Y004554D03*
X067181Y004554D03*
X077181Y004554D03*
X085181Y004054D03*
X084431Y025304D03*
X086681Y025304D03*
X048181Y027054D03*
X047181Y027054D03*
X046181Y027054D03*
M02*
